<svg width="183" height="32" viewBox="0 0 183 32" fill="none" xmlns="http://www.w3.org/2000/svg">
<path d="M1.04257 5.91465L6.16974 1.93896V16.197L13.5516 8.85961H20.9334L12.4843 17.3976L22.3564 31.094H15.9084L8.57106 21.0441L6.16974 23.4454V31.094H0.388794L1.04257 5.91465Z" fill="#4082E6"/>
<path d="M24.5649 19.399C24.5649 15.8712 25.4395 13.2179 27.1886 11.4391C28.9377 9.66037 31.2353 8.771 34.0813 8.771H34.3481V14.4185H34.1257C32.851 14.4185 31.9023 14.8188 31.2797 15.6192C30.6572 16.4196 30.3459 17.6796 30.3459 19.399V31.0943H24.5649V19.399Z" fill="#4082E6"/>
<path d="M36.5568 19.6654C36.5568 17.6198 37.0459 15.7225 38.0242 13.9734C39.0322 12.1946 40.3959 10.7864 42.1154 9.74883C43.8645 8.68157 45.7766 8.14795 47.8518 8.14795C49.7492 8.14795 51.5724 8.59264 53.3215 9.48201C55.0706 10.3417 56.5084 11.6017 57.635 13.2619C58.7912 14.922 59.3989 16.8787 59.4582 19.1317C59.4878 20.0804 59.4286 20.9994 59.2803 21.8888H42.7824C43.0492 22.9857 43.6273 23.8603 44.5167 24.5125C45.4357 25.135 46.5474 25.4463 47.8518 25.4463C48.7709 25.4463 49.512 25.3277 50.0753 25.0906C50.6682 24.8534 51.2018 24.5421 51.6762 24.1567L58.5688 24.2012C57.6498 26.2468 56.2416 27.9069 54.3443 29.1817C52.447 30.4565 50.3421 31.0939 48.0297 31.0939C45.9249 31.0939 43.9979 30.5899 42.2488 29.5819C40.4997 28.5443 39.1063 27.151 38.0687 25.4018C37.0607 23.6527 36.5568 21.7406 36.5568 19.6654ZM53.277 17.2641C52.8323 16.2264 52.1208 15.3964 51.1425 14.7738C50.1939 14.1216 49.1563 13.7955 48.0297 13.7955C46.7846 13.7955 45.7173 14.1068 44.828 14.7293C43.9386 15.3519 43.2567 16.1968 42.7824 17.2641H53.277Z" fill="#4082E6"/>
<path d="M73.1474 31.0939C71.0722 31.0939 69.16 30.5899 67.4109 29.5819C65.6618 28.5443 64.2685 27.151 63.2308 25.4018C62.1932 23.6231 61.6744 21.6961 61.6744 19.6209C61.6744 17.5457 62.1932 15.6335 63.2308 13.8844C64.2685 12.1057 65.6618 10.7123 67.4109 9.70436C69.16 8.66675 71.0722 8.14795 73.1474 8.14795C75.2226 8.14795 77.1348 8.66675 78.8839 9.70436C80.633 10.7123 82.0115 12.1057 83.0195 13.8844C84.0571 15.6335 84.5759 17.5457 84.5759 19.6209V30.7381H78.7949V28.3813C78.4688 29.1224 77.7573 29.7598 76.6604 30.2934C75.5635 30.827 74.3925 31.0939 73.1474 31.0939ZM73.1919 25.4463C74.8224 25.4463 76.1713 24.8979 77.2385 23.801C78.3058 22.6744 78.8394 21.2811 78.8394 19.6209C78.8394 17.9607 78.3058 16.5822 77.2385 15.4853C76.1713 14.3588 74.8224 13.7955 73.1919 13.7955C71.5613 13.7955 70.1976 14.3588 69.1007 15.4853C68.0038 16.5822 67.4554 17.9607 67.4554 19.6209C67.4554 21.2811 68.0038 22.6744 69.1007 23.801C70.1976 24.8979 71.5613 25.4463 73.1919 25.4463Z" fill="#4082E6"/>
<path d="M86.7847 8.85986H92.8324L97.9019 23.4901L103.016 8.85986H109.064L100.792 31.0943H95.0114L86.7847 8.85986Z" fill="#4082E6"/>
<path d="M126.144 1.82299C128.203 2.08092 130.036 2.83337 131.643 4.08034C133.282 5.30157 134.492 6.8573 135.271 8.74755C136.083 10.6121 136.36 12.5739 136.102 14.633C135.844 16.6921 135.09 18.5397 133.839 20.1757C132.622 21.7859 131.066 22.9953 129.172 23.8038C127.311 24.5865 125.351 24.8489 123.292 24.591C121.233 24.333 119.384 23.5934 117.744 22.3722C116.137 21.1252 114.928 19.5695 114.116 17.705C113.337 15.8148 113.076 13.8401 113.334 11.781C113.592 9.72184 114.33 7.88715 115.547 6.27689C116.798 4.6409 118.354 3.43153 120.215 2.64879C122.108 1.84032 124.085 1.56505 126.144 1.82299ZM125.486 7.43226C123.868 7.2296 122.445 7.619 121.217 8.60047C119.992 9.55252 119.277 10.8522 119.07 12.4995C118.864 14.1468 119.235 15.5975 120.183 16.8517C121.135 18.0764 122.42 18.7901 124.038 18.9927C125.656 19.1954 127.063 18.8189 128.258 17.8631C129.457 16.878 130.16 15.5618 130.366 13.9145C130.572 12.2672 130.214 10.833 129.292 9.61195C128.373 8.36149 127.104 7.63492 125.486 7.43226Z" fill="#4082E6"/>
<path d="M113.241 23.0908C117.067 28.5722 123.496 30.9781 131.394 26.9212" stroke="url(#paint0_linear_1304_109)" stroke-width="4.41743" stroke-linecap="round"/>
<circle cx="124.605" cy="12.8217" r="3.0922" transform="rotate(7.13997 124.605 12.8217)" fill="#FEF747"/>
<path d="M140.391 5.91465L145.518 1.93896V16.197L152.9 8.85961H160.281L151.832 17.3976L161.704 31.094H155.256L147.919 21.0441L145.518 23.4454V31.094H139.737L140.391 5.91465Z" fill="#4082E6"/>
<path d="M173.456 31.0939C171.74 31.0939 170.157 30.8128 168.707 30.2506C167.257 29.6588 166.088 28.8006 165.2 27.6762C164.342 26.5221 163.913 25.1461 163.913 23.5482H169.417C169.417 24.2584 169.802 24.8354 170.571 25.2793C171.37 25.7232 172.376 25.9451 173.589 25.9451C174.744 25.9451 175.631 25.7528 176.253 25.3681C176.904 24.9538 177.229 24.436 177.229 23.8145C177.229 23.1635 176.874 22.7049 176.164 22.4385C175.454 22.1722 174.314 21.9059 172.746 21.6396C171 21.3437 169.55 21.0182 168.396 20.6631C167.242 20.2784 166.236 19.6422 165.378 18.7545C164.549 17.8371 164.135 16.5499 164.135 14.8928C164.135 13.6204 164.535 12.4811 165.334 11.475C166.162 10.4394 167.272 9.64039 168.663 9.07816C170.053 8.48634 171.607 8.19043 173.323 8.19043C175.986 8.19043 178.161 8.84143 179.848 10.1434C181.535 11.4159 182.378 13.1913 182.378 15.4698H176.874C176.874 14.8484 176.504 14.3306 175.764 13.9163C175.054 13.502 174.211 13.2949 173.234 13.2949C172.287 13.2949 171.489 13.4872 170.838 13.8719C170.216 14.2566 169.905 14.7449 169.905 15.3367C169.905 15.8693 170.246 16.2688 170.926 16.5351C171.607 16.8014 172.687 17.053 174.167 17.2897C175.912 17.5856 177.377 17.9259 178.561 18.3106C179.744 18.6657 180.78 19.3019 181.668 20.2192C182.556 21.1069 182.999 22.3498 182.999 23.9477C183.029 26.315 182.156 28.1052 180.381 29.3185C178.635 30.5021 176.327 31.0939 173.456 31.0939Z" fill="#4082E6"/>
<defs>
<linearGradient id="paint0_linear_1304_109" x1="112.846" y1="24.962" x2="131" y2="28.7924" gradientUnits="userSpaceOnUse">
<stop stop-color="#4082E6"/>
<stop offset="1" stop-color="#FEF747"/>
</linearGradient>
</defs>
</svg>
