<svg width="420" height="71" viewBox="0 0 420 71" fill="none" xmlns="http://www.w3.org/2000/svg">
<path d="M1.50167 12.6739L13.2784 3.54199V36.2916L30.234 19.4382H47.1895L27.7826 39.0495L50.4581 70.5091H35.6475L18.7941 47.4251L13.2784 52.9408V70.5091H0L1.50167 12.6739Z" fill="#4082E6"/>
<path d="M55.5312 43.6459C55.5312 35.5427 57.54 29.4482 61.5576 25.3625C65.5752 21.2768 70.8525 19.234 77.3896 19.234H78.0025V32.206H77.4917C74.5637 32.206 72.3847 33.1253 70.9547 34.9639C69.5247 36.8024 68.8097 39.6964 68.8097 43.6459V70.5092H55.5312V43.6459Z" fill="#4082E6"/>
<path d="M83.0762 44.2587C83.0762 39.5602 84.1997 35.2021 86.4469 31.1845C88.7621 27.0989 91.8944 23.8644 95.8439 21.4811C99.8615 19.0297 104.254 17.804 109.02 17.804C113.378 17.804 117.566 18.8254 121.584 20.8682C125.601 22.843 128.904 25.737 131.491 29.5503C134.147 33.3636 135.543 37.8578 135.679 43.033C135.747 45.212 135.611 47.3229 135.271 49.3658H97.376C97.9889 51.8853 99.3167 53.8941 101.36 55.3921C103.47 56.8221 106.024 57.5371 109.02 57.5371C111.131 57.5371 112.833 57.2647 114.127 56.72C115.489 56.1752 116.715 55.4602 117.804 54.575L133.636 54.6772C131.525 59.3757 128.291 63.189 123.933 66.117C119.575 69.0451 114.74 70.5091 109.429 70.5091C104.594 70.5091 100.168 69.3515 96.1503 67.0363C92.1328 64.653 88.9323 61.4526 86.549 57.435C84.2338 53.4174 83.0762 49.0253 83.0762 44.2587ZM121.482 38.743C120.46 36.3597 118.826 34.4531 116.579 33.0231C114.4 31.525 112.016 30.776 109.429 30.776C106.569 30.776 104.117 31.491 102.075 32.9209C100.032 34.3509 98.4655 36.2916 97.376 38.743H121.482Z" fill="#4082E6"/>
<path d="M167.122 70.5091C162.356 70.5091 157.963 69.3515 153.946 67.0363C149.928 64.653 146.728 61.4526 144.344 57.435C141.961 53.3493 140.77 48.9232 140.77 44.1565C140.77 39.3899 141.961 34.9978 144.344 30.9803C146.728 26.8946 149.928 23.6941 153.946 21.3789C157.963 18.9956 162.356 17.804 167.122 17.804C171.889 17.804 176.281 18.9956 180.298 21.3789C184.316 23.6941 187.482 26.8946 189.798 30.9803C192.181 34.9978 193.373 39.3899 193.373 44.1565V69.692H180.094V64.2785C179.345 65.9808 177.711 67.4449 175.191 68.6706C172.672 69.8963 169.982 70.5091 167.122 70.5091ZM167.224 57.5371C170.969 57.5371 174.068 56.2774 176.519 53.7579C178.971 51.1703 180.196 47.9698 180.196 44.1565C180.196 40.3433 178.971 37.1769 176.519 34.6574C174.068 32.0698 170.969 30.776 167.224 30.776C163.479 30.776 160.347 32.0698 157.827 34.6574C155.308 37.1769 154.048 40.3433 154.048 44.1565C154.048 47.9698 155.308 51.1703 157.827 53.7579C160.347 56.2774 163.479 57.5371 167.224 57.5371Z" fill="#4082E6"/>
<path d="M198.445 19.4382H212.337L223.981 53.0429L235.727 19.4382H249.618L230.62 70.5091H217.342L198.445 19.4382Z" fill="#4082E6"/>
<path d="M288.851 3.27546C293.581 3.86792 297.791 5.59625 301.481 8.46043C305.247 11.2655 308.025 14.8389 309.815 19.1807C311.68 23.4633 312.317 27.9695 311.724 32.6992C311.132 37.4288 309.399 41.6725 306.526 45.4303C303.73 49.1289 300.156 51.9068 295.806 53.7638C291.532 55.5617 287.03 56.1644 282.3 55.5719C277.571 54.9795 273.323 53.2807 269.557 50.4756C265.866 47.6114 263.089 44.038 261.223 39.7554C259.434 35.4136 258.835 30.8779 259.428 26.1482C260.02 21.4186 261.715 17.2044 264.511 13.5058C267.384 9.74801 270.957 6.97018 275.232 5.17227C279.582 3.31527 284.122 2.683 288.851 3.27546ZM287.34 16.1596C283.624 15.6941 280.355 16.5885 277.534 18.8429C274.721 21.0297 273.077 24.0149 272.603 27.7987C272.129 31.5824 272.981 34.9146 275.16 37.7953C277.346 40.6084 280.298 42.2477 284.014 42.7132C287.73 43.1787 290.961 42.3138 293.707 40.1186C296.461 37.8557 298.075 34.8325 298.549 31.0487C299.023 27.265 298.2 23.9708 296.081 21.1662C293.97 18.2939 291.057 16.6251 287.34 16.1596Z" fill="#4082E6"/>
<path d="M259.215 52.1267C268.002 64.717 282.769 70.2432 300.912 60.9248" stroke="url(#paint0_linear_49_60)" stroke-width="10.1465" stroke-linecap="round"/>
<circle cx="285.315" cy="28.5389" r="7.10258" transform="rotate(7.13997 285.315 28.5389)" fill="#FEF747"/>
<path d="M321.574 12.6739L333.351 3.54199V36.2916L350.306 19.4382H367.262L347.855 39.0495L370.53 70.5091H355.72L338.866 47.4251L333.351 52.9408V70.5091H320.072L321.574 12.6739Z" fill="#4082E6"/>
<path d="M397.525 70.5092C393.583 70.5092 389.947 69.8635 386.616 68.5721C383.286 67.2127 380.601 65.2416 378.562 62.6588C376.591 60.008 375.605 56.8475 375.605 53.1772H388.248C388.248 54.8084 389.131 56.1338 390.898 57.1533C392.734 58.1729 395.045 58.6826 397.831 58.6826C400.482 58.6826 402.521 58.2408 403.948 57.3572C405.444 56.4057 406.191 55.2162 406.191 53.7889C406.191 52.2936 405.376 51.24 403.745 50.6283C402.113 50.0166 399.496 49.4049 395.894 48.7932C391.884 48.1135 388.553 47.3658 385.903 46.5502C383.252 45.6666 380.941 44.2053 378.97 42.1662C377.067 40.0592 376.115 37.1025 376.115 33.2963C376.115 30.3736 377.033 27.7568 378.868 25.4459C380.771 23.067 383.32 21.2318 386.514 19.9404C389.709 18.5811 393.277 17.9014 397.22 17.9014C403.337 17.9014 408.332 19.3967 412.207 22.3873C416.081 25.31 418.018 29.3881 418.018 34.6217H405.376C405.376 33.1943 404.526 32.0049 402.827 31.0533C401.196 30.1018 399.259 29.626 397.016 29.626C394.841 29.626 393.005 30.0678 391.51 30.9514C390.083 31.835 389.369 32.9564 389.369 34.3158C389.369 35.5393 390.151 36.4568 391.714 37.0686C393.277 37.6803 395.758 38.258 399.157 38.8018C403.167 39.4814 406.531 40.2631 409.25 41.1467C411.969 41.9623 414.348 43.4236 416.387 45.5307C418.426 47.5697 419.445 50.4244 419.445 54.0947C419.513 59.5322 417.508 63.6443 413.43 66.4311C409.42 69.1498 404.118 70.5092 397.525 70.5092Z" fill="#4082E6"/>
<defs>
<linearGradient id="paint0_linear_49_60" x1="258.308" y1="56.4247" x2="300.005" y2="65.2228" gradientUnits="userSpaceOnUse">
<stop stop-color="#4082E6"/>
<stop offset="1" stop-color="#FEF747"/>
</linearGradient>
</defs>
</svg>
