<svg id="Layer_1" data-name="Layer 1" xmlns="http://www.w3.org/2000/svg" viewBox="0 0 1080 1080"><defs><style>.cls-1{fill:#7a75b5;}.cls-2{fill:#b6b3d6;}.cls-3{fill:#abacae;}.cls-4{fill:#a3a5a6;}.cls-5{fill:#e7e7e7;}.cls-6{fill:#dcddde;}.cls-7{fill:#e5e6e6;}.cls-8{fill:#e5e5f0;}.cls-9{fill:#eaeaeb;}.cls-10{fill:#e8e7f2;}.cls-11{fill:#bab7d8;}.cls-12{fill:#b9babb;}.cls-13{fill:#c0c2c2;}.cls-14{fill:#a19ecb;}.cls-15{fill:#c8c9ca;}.cls-16{fill:#c3c4c5;}.cls-17{fill:#c6c4df;}.cls-18{fill:#848688;}.cls-19{fill:#393637;}.cls-20{fill:#fdfdfd;}.cls-21{fill:#04b1f0;}.cls-22{fill:#05b1f0;}.cls-23{fill:#d9f2fb;}.cls-24{fill:#bbe9fa;}.cls-25{fill:#fcfdfd;}.cls-26{fill:#f7fbfd;}.cls-27{fill:#edf8fc;}.cls-28{fill:#b2e6f9;}.cls-29{fill:#f3fafc;}</style></defs><path class="cls-1" d="M541.93,277.29a269.36,269.36,0,0,1,30.35,4.18,246.69,246.69,0,0,1,32.78,8.95c5.35,1.87,10.58,4,15.83,6.15,6.39,2.57,12.43,5.86,18.62,8.82,3.37,1.61,6.51,3.68,9.76,5.54,5.25,3,10.29,6.39,15.31,9.77,3.49,2.34,6.74,5.05,10.2,7.45,2.36,1.64,4.23,3.88,6.74,5.3a3.47,3.47,0,0,1,.57.44,238.34,238.34,0,0,1,20,18.95c3.74,4,7.52,8,10.9,12.33s6.91,8.92,10.3,13.43c4.18,5.56,7.72,11.49,11.37,17.38.09.13.2.25.29.38.4.56.67,1.27,0,1.68s-1.06-.25-1.51-.75c-3.18-3.55-6.13-7.31-9.26-10.9-5.48-6.29-11.78-11.71-17.63-17.59a94.3,94.3,0,0,0-9.27-7.86c-3.08-2.38-6-5-9.13-7.28-4.18-3.05-8.47-5.93-12.78-8.8-5.3-3.53-10.82-6.7-16.4-9.79-6.71-3.73-13.64-7-20.59-10.23-5.42-2.51-11.07-4.52-16.7-6.56a247.64,247.64,0,0,0-27.33-8A281.19,281.19,0,0,0,563.66,305c-13.87-1.7-27.79-1.54-41.67-1.11a224.17,224.17,0,0,0-40.79,5.31,293.46,293.46,0,0,0-32.45,9.23c-4.9,1.68-9.67,3.74-14.48,5.66-5.95,2.38-11.58,5.41-17.33,8.17-3.66,1.76-7.15,3.86-10.66,5.91s-7.33,4.22-10.78,6.64c-3.91,2.73-7.93,5.28-11.75,8.15-2.93,2.19-5.86,4.39-8.68,6.7-2.21,1.81-4.45,3.61-6.64,5.45A197.71,197.71,0,0,0,351.77,381a113.87,113.87,0,0,0-8,8.83c-1.3,1.69-2.84,3.22-4.2,4.89-2.66,3.27-5.35,6.5-7.84,9.91q-5.21,7.14-10.06,14.52a88.83,88.83,0,0,0-4.94,7.89c-2.76,5.31-6,10.36-8.49,15.82-3.26,7.19-6.45,14.41-9.31,21.78a234.87,234.87,0,0,0-10.43,36.07A212.21,212.21,0,0,0,284.73,526c-.78,8.68-1.16,17.38-1.51,26.08,0,.74.26,1.62-.77,2.4A117.82,117.82,0,0,1,279.9,536c-.35-1-.34-2-.61-3.05a4.8,4.8,0,0,1,0-.85q0-15.13,0-30.28a72.12,72.12,0,0,1,.23-8.32c0-9.34,2-18.41,3.8-27.49a212.44,212.44,0,0,1,6.93-25.68c2.27-6.74,4.91-13.35,7.75-19.88A218.4,218.4,0,0,1,311.59,394,271.68,271.68,0,0,1,328,370.16a249.09,249.09,0,0,1,27.12-29.38,211.48,211.48,0,0,1,21.16-17.23q10.31-7.46,21.24-13.92a264.25,264.25,0,0,1,27.38-13.75,224.66,224.66,0,0,1,28.46-10.06,234.61,234.61,0,0,1,37.77-7.77c4.29-.51,8.58-.73,12.88-1h3.61c.55-.08,1.15.19,1.65-.25h27.83c.68.48,1.45.15,2.17.25C540.17,277.18,541.08,276.88,541.93,277.29Z"/><path class="cls-2" d="M279,494.66c.7-.47.25-1.46.88-2,.3,2.08-.43,4.08-.42,6.16.1,11.4,0,22.8,0,34.2a.28.28,0,0,1-.47,0Z"/><path class="cls-3" d="M571.19,803.16H542.88a.56.56,0,0,1,.26-.78,5.11,5.11,0,0,1,2.56-.44q11.32,0,22.67,0a5.26,5.26,0,0,1,2.56.43A.58.58,0,0,1,571.19,803.16Z"/><path class="cls-4" d="M801,558v14.88a.56.56,0,0,1-.77-.24,48.27,48.27,0,0,1,0-14.4A.56.56,0,0,1,801,558Z"/><path class="cls-5" d="M800.59,552.7a1.86,1.86,0,0,1,.41,0v3.36a.52.52,0,0,1-.73-.18A2.67,2.67,0,0,1,800.59,552.7Z"/><path class="cls-6" d="M801,577.66l-.2,0h-.2a2.17,2.17,0,0,1-.33-2.73.52.52,0,0,1,.73-.18Z"/><path class="cls-7" d="M575.51,802.72c0,.14,0,.29,0,.44h-2.87a.5.5,0,0,1,.16-.72A2.21,2.21,0,0,1,575.51,802.72Z"/><path class="cls-8" d="M541.93,277.29l-2.84-.05c-.19-.07-.26-.15-.21-.25s.1-.15.16-.15h2.88C541.92,277,541.92,277.14,541.93,277.29Z"/><path class="cls-9" d="M538.56,803.16c0-.15,0-.29,0-.44a2.22,2.22,0,0,1,2.73-.28.51.51,0,0,1,.16.72Z"/><path class="cls-8" d="M504,277.29c0-.15,0-.3,0-.45h2.4c.16.1.21.2.15.29s-.12.13-.18.13Z"/><path class="cls-10" d="M279,533h.48a1.84,1.84,0,0,1,0,1.92,3.53,3.53,0,0,1-.46,0Z"/><path class="cls-11" d="M539,276.84a2.73,2.73,0,0,0,.05.4c-.7.06-1.42.27-2-.4Z"/><path class="cls-12" d="M801,574.78l-.43,0a1.25,1.25,0,0,1,0-1.93l.44,0Z"/><path class="cls-13" d="M800.59,556a1.12,1.12,0,0,1,.41,0V558a3,3,0,0,0-.43,0A1.23,1.23,0,0,1,800.59,556Z"/><path class="cls-14" d="M509.29,276.84c-.36.57-.92.48-1.46.44-.14-.1-.18-.2-.13-.3s.1-.14.15-.14Z"/><path class="cls-15" d="M541.44,803.16c0-.13,0-.26,0-.4a.94.94,0,0,1,1.45,0,3.25,3.25,0,0,1,0,.44Z"/><path class="cls-16" d="M572.66,802.76l0,.4h-1.44c0-.14,0-.29,0-.43A.93.93,0,0,1,572.66,802.76Z"/><path class="cls-17" d="M507.85,276.84a2.26,2.26,0,0,1,0,.45l-1.44,0a3,3,0,0,0,0-.42Z"/><path class="cls-18" d="M572.66,802.76l-1.45,0H542.85l-1.45,0-2.85,0a258.32,258.32,0,0,1-46.22-7.79c-7.49-2-14.82-4.46-22.12-7a235.28,235.28,0,0,1-29.73-13.25,185.12,185.12,0,0,1-19.9-11.86c-3.87-2.66-7.89-5.11-11.57-8-3.06-2.41-6.08-4.91-9.18-7.23s-5.38-5.46-8.76-7.36a7.77,7.77,0,0,1-1.41-1.29c-2.74-2.69-5.47-5.39-8.22-8.06-3.66-3.56-6.86-7.54-10.32-11.27-2.71-2.92-5.05-6.14-7.72-9.09-1.7-1.88-3.15-4-4.7-6a3.23,3.23,0,0,1-.52-1.07c-.2-.66.29-1.09.95-.89a3.87,3.87,0,0,1,1.49,1.17l7.88,7.73c3.35,3.3,7.05,6.18,10.71,9.13,2.6,2.1,5.18,4.2,7.84,6.24,4.42,3.39,9,6.6,13.66,9.59,5.05,3.2,10,6.48,15.34,9.27,4.51,2.37,8.89,5,13.51,7.16,8.05,3.69,16.21,7.11,24.56,10.12a253.83,253.83,0,0,0,27.75,8.25,258.09,258.09,0,0,0,30.42,5.22,200.73,200.73,0,0,0,25.35,1.22c4.8-.06,9.6,0,14.4,0a200.2,200.2,0,0,0,24.57-2.06,232,232,0,0,0,24.69-4.67,235.55,235.55,0,0,0,25.92-7.7c5.3-2,10.54-4.14,15.84-6.15.59-.22,1.17-.51,1.74-.79,5.66-2.75,11.37-5.43,17-8.29,3.54-1.81,7-3.83,10.39-5.88,5.06-3,10-6.3,14.89-9.54,2.52-1.65,4.85-3.6,7.35-5.28,3.44-2.31,6.34-5.3,9.79-7.59a8.42,8.42,0,0,0,.73-.61c6.52-5.42,12.36-11.55,18.52-17.34,3.33-3.13,6.23-6.63,9.29-10,2.5-2.73,4.73-5.77,7.09-8.65,3.49-4.26,6.73-8.67,9.86-13.18,3.78-5.42,7.29-11,10.65-16.72,3.53-6,6.62-12.22,9.69-18.44,2.22-4.5,4-9.2,5.93-13.86a237.26,237.26,0,0,0,10.81-35A240.28,240.28,0,0,0,791,561.62c1.88-14.49,1.62-29,1.27-43.57-.11-4.22-.69-8.44-1.08-12.65a9.2,9.2,0,0,1,.14-3.89,2.25,2.25,0,0,1,1.38,1.88,232.14,232.14,0,0,1,5.91,27.85,167.79,167.79,0,0,1,2,21.46V556c0,.64,0,1.28,0,1.92q0,7.47,0,14.94c0,.64,0,1.28,0,1.93l0,2.87c-.31,16.22-3.23,32.06-7.23,47.71a202.86,202.86,0,0,1-7.1,22.35,246.23,246.23,0,0,1-14.1,30.39q-3.85,7-8.23,13.72c-1.83,2.8-3.57,5.66-5.56,8.34-3.23,4.34-6.41,8.7-9.82,12.89-3,3.64-6.32,6.94-9.09,10.74a10.74,10.74,0,0,1-1.33,1.37c-5.72,5.58-11.4,11.21-17.2,16.71-2.25,2.12-4.79,3.93-7.21,5.86-1.68,1.34-3.24,2.8-5,4.11-3.1,2.35-6.21,4.69-9.42,6.9s-6.69,4.6-10.13,6.75-7,4.39-10.69,6.34c-4.5,2.39-8.87,5.06-13.51,7.18-7.91,3.6-15.93,6.94-24.12,9.91a245.41,245.41,0,0,1-25.68,7.61,249.55,249.55,0,0,1-25.89,4.72c-4.59.62-9.22.9-13.82,1.43Z"/><path class="cls-19" d="M300.05,541.18c0-3.91.09-7.84,0-11.75a125.06,125.06,0,0,1,1.67-21,211.7,211.7,0,0,1,5.62-27.2c2.14-7.6,4.7-15.07,7.48-22.47a236.5,236.5,0,0,1,13.14-28.18c2-3.78,4.34-7.41,6.58-11.07,2.54-4.15,5.33-8.12,8.11-12.09,1.64-2.34,3.39-4.6,5.12-6.87,2.41-3.16,5.18-6,7.46-9.28a3.47,3.47,0,0,1,.31-.36c7.29-8.06,15-15.69,23.05-23,3.55-3.24,7.37-6.26,11.22-9.21,6.13-4.7,12.37-9.21,18.9-13.3,4-2.53,8.09-5.06,12.33-7.28q4.44-2.34,8.9-4.64a226.54,226.54,0,0,1,22.14-9.69A241,241,0,0,1,484.59,314a236.07,236.07,0,0,1,36.95-5.36c.8,0,1.6,0,2.4,0,8.16,0,16.31.09,24.47,0,9.63-.13,19.13,1,28.62,2.46a242.75,242.75,0,0,1,26,5.52,217.32,217.32,0,0,1,24.1,7.87,227.29,227.29,0,0,1,21.44,9.47q7.21,3.72,14.22,7.84c5,2.94,9.87,6.13,14.68,9.38q5.5,3.74,10.71,7.94c3.66,2.95,7.14,6.1,10.78,9,5.69,4.58,10.47,10.07,15.87,14.91,1.62,3,4.53,4.88,6.56,7.56,1.52,2,3.28,3.89,5,5.8,2.4,2.75,4.58,5.7,6.75,8.63,2.51,3.39,5,6.8,7.23,10.37,1.69,2.69,3.5,5.32,5.1,8.06,2.77,4.75,5.64,9.46,8.07,14.38a245.51,245.51,0,0,1,16.3,42.11,231.66,231.66,0,0,1,7.1,37.62,110.68,110.68,0,0,1,.81,13.87c-.13,8.88.33,17.76-.24,26.62a217.57,217.57,0,0,1-5.16,34.8A242.26,242.26,0,0,1,764,620.57a187.91,187.91,0,0,1-11.19,25.12c-2.36,4.43-4.5,9-7.21,13.23-3.3,5.15-6.44,10.4-10.11,15.32q-4.35,5.82-8.75,11.59c-1.47,1.94-3.3,3.72-4.74,5.66-2.43,3.3-6,5.54-8.1,9.07a7,7,0,0,1-1,1c-5.43,5.75-11.42,10.93-17.37,16.1a165.6,165.6,0,0,1-15.1,11.6c-4.13,2.83-8.13,5.86-12.4,8.47-2.85,1.74-5.79,3.34-8.6,5.15-4,2.56-8.33,4.33-12.44,6.62s-8.41,3.82-12.64,5.69c-3.14,1.38-6.32,2.65-9.54,3.86-6.2,2.34-12.53,4.28-18.86,6.21a203.78,203.78,0,0,1-26.16,5.86,179.64,179.64,0,0,1-29.55,2.91c-9.27,0-18.56.26-27.82-.15A219.53,219.53,0,0,1,477.76,767a237.19,237.19,0,0,1-29.13-9.42,213.18,213.18,0,0,1-21.8-9.85c-8-4.29-15.8-8.89-23.37-13.92-4.17-2.77-8.26-5.67-12.21-8.71-3.64-2.81-7.2-5.75-10.74-8.72-6.26-5.25-11.88-11.13-17.69-16.83-2.76-2.7-5.19-5.79-7.81-8.66s-4.65-5.84-7.13-8.64c-2.15-2.42-3.76-5.32-5.79-7.86-2.94-3.68-5.22-7.79-7.93-11.62-1-1.36-1.78-2.84-2.61-4.27-3.85-6.63-7.6-13.33-10.77-20.3a227,227,0,0,1-20.55-76.61c-.25-2.78-.16-5.6-.17-8.39C300,549.18,300.05,545.18,300.05,541.18Z"/><path class="cls-2" d="M279.46,535c0-.64,0-1.28,0-1.92.8.87.45,1.92.42,2.91A1.53,1.53,0,0,1,279.46,535Z"/><path class="cls-20" d="M537.39,768.64A225.85,225.85,0,0,1,443.84,749a241.12,241.12,0,0,1-66.31-43c-16-14.72-29-31.83-40.42-50.3-12.93-21-21.19-43.76-26.9-67.59a154.36,154.36,0,0,1-4.53-40.85c.15-4.88,0-9.76.07-14.63a200.06,200.06,0,0,1,15.74-75.05C339,415.66,366.84,382,403.84,355.92a228.06,228.06,0,0,1,82.7-36.64A212.67,212.67,0,0,1,519,314.65a284.24,284.24,0,0,1,32.37-.25c52.32,2.6,98.84,20.49,139,54.14a225.42,225.42,0,0,1,72,108.29,216.77,216.77,0,0,1,8.53,42.44,228.32,228.32,0,0,1,.72,39c-2.52,35.83-13.17,69.14-32.37,99.46-34.05,53.8-82.24,88.39-143.89,104.14C576.08,766.84,558.88,768.59,537.39,768.64Z"/><path class="cls-19" d="M539,762.5c-66.24-1.24-122.86-24.92-168.6-73.21a211.4,211.4,0,0,1-53.35-100.1,196.15,196.15,0,0,1-5-41.81c-.07-7.91-.2-15.82.33-23.73a188.51,188.51,0,0,1,8.32-43.92c10.52-33.44,27.44-63.24,51.55-88.76,18.24-19.31,39.68-34.36,63.3-46.44,17.4-8.89,35.81-14.81,54.76-19.23a196.37,196.37,0,0,1,29.32-4.63c2.23-.18,4.48-.23,6.71-.24,6.08,0,12.16-.08,18.23,0a221.85,221.85,0,0,1,95.15,23.06c39.57,19.35,71,47.86,94.21,85.22,10.45,16.79,17.56,35.1,23.35,53.94a198.21,198.21,0,0,1,7.54,35.57,113.84,113.84,0,0,1,.77,12.92c0,6.16.06,12.32,0,18.47a188.69,188.69,0,0,1-12.89,65.49C727.24,681.3,673.8,734.63,596.92,755a217.64,217.64,0,0,1-44.9,7C547.7,762.25,543.39,762.37,539,762.5Z"/><path class="cls-20" d="M539.46,756.84c-4.64,0-9.28.07-13.91,0-12.93-.24-25.57-2.51-38.12-5.46a222.1,222.1,0,0,1-88-42.37c-40.13-31.75-65.66-72.91-77.53-122.58a153.74,153.74,0,0,1-4.13-35.4c0-8.07-.05-16.15,0-24.22.05-12.16,2.34-24,5.42-35.68,8.65-32.79,23.57-62.33,45.64-88.19,20.3-23.79,44.91-41.88,72.95-55.46a219.39,219.39,0,0,1,56-18.63,174.18,174.18,0,0,1,29.79-3q12.82-.15,25.66,0a146.75,146.75,0,0,1,29.43,3.75c16.5,3.58,32.68,8.3,48.06,15.32C675.13,365.22,709.91,396.26,734,439c4.53,8,7.66,16.68,11.08,25.2a227.63,227.63,0,0,1,11.51,36.25,141.69,141.69,0,0,1,3.26,24.19c.41,10.15.37,20.31.1,30.45-.31,12-2.6,23.8-5.48,35.45a212.66,212.66,0,0,1-39.22,80.91,229.16,229.16,0,0,1-70.69,59.89c-7,3.87-14.62,6.38-22.07,9.25-11.93,4.58-24,8.86-36.41,11.85a156.51,156.51,0,0,1-37.27,4.46h-9.35Z"/><path class="cls-21" d="M530.66,589.47a3.3,3.3,0,0,0,.37-2.28c0-10.79-.12-21.59.07-32.38a30,30,0,0,0-3.89-15.59,76,76,0,0,0-4-6.83c-1-1.45-1.31-1.56-3-1-2.28.74-4.5,1.66-6.78,2.38-11.34,3.58-22.32,3.2-32.83-2.91a89.92,89.92,0,0,1-12.24-8.4,48.34,48.34,0,0,1-7.14-7.09,13.18,13.18,0,0,1-2.78-4.85c7.51-1.44,14.09-5.43,21.49-6.84,11.31-2.17,22-.65,31.61,6,3.62,2.48,7,5.26,10.58,7.88,2.76,2,2.78,2,5.56,0,.39-.27.77-.57,1.14-.88,2.53-2.17,2.7-3.08,1-5.89a74,74,0,0,1-7.71-16.19,36.34,36.34,0,0,1-1.66-10.85c0-2.48-.08-5,.07-7.43a27.21,27.21,0,0,1,4-11.93,74.31,74.31,0,0,1,8.94-11.86c.63-.72,1.24-1.46,1.91-2.15a4.82,4.82,0,0,0,1.35-3.67q-.08-16.91,0-33.82a4,4,0,0,0-1.78-3.64,94.34,94.34,0,0,0-10.16-6.35c-7.75-4.3-15.55-8.54-23.3-12.84a1.74,1.74,0,0,0-2.48.22c-4.39,4.16-11.16,2.33-14.45-2.2a4.35,4.35,0,0,1-.35-.63c-1.87-3.92-.18-9.88,3.48-12.18a6.52,6.52,0,0,1,3.6-1.15c1,0,1.92,0,2.88,0,3.87.08,6.23,1.75,7.62,5.41a12.11,12.11,0,0,1,.88,4.44,2.8,2.8,0,0,0,1.56,2.7c10.27,6,20.55,12,31.19,17.39.43.22.89.38,1.3.63a4.5,4.5,0,0,0,5.08-.16c10.44-6,21-12,31.49-17.85A2.76,2.76,0,0,0,575,383.9a11.78,11.78,0,0,1,1.4-5.77,6.84,6.84,0,0,1,6.11-4c1.11-.05,2.23,0,3.35-.05a7,7,0,0,1,6.68,3.89c1.83,3.34,2.34,6.9.06,10.21a9.59,9.59,0,0,1-10,4.26,6.74,6.74,0,0,1-4.08-2.34c-.66-.78-1.22-.74-2-.3-10.57,5.65-21.2,11.19-31.28,17.7l-.6.4c-3.64,2.5-3.64,2.5-3.64,7,0,10.56,0,21.11,0,31.67a5.27,5.27,0,0,0,1.46,3.87,85.7,85.7,0,0,1,9.24,11.62c4.83,7.62,6.22,15.88,5.4,24.78-.83,9.08-4.48,16.89-9.65,24.17-1.88,2.66-1.84,2.69.58,4.77,1.21,1.05,2.46,2,3.63,3.13a1.38,1.38,0,0,0,2.08.1c2.26-1.78,4.56-3.51,6.82-5.29a70.17,70.17,0,0,1,9.87-6.78,36.4,36.4,0,0,1,16.08-4.18A49.63,49.63,0,0,1,605,505.83c4.15,1.46,8.23,3.08,12.48,4.24,1.31.36,1.35.54.75,1.88a14.71,14.71,0,0,1-2.4,3.57,80.52,80.52,0,0,1-15,13.41c-6.61,4.57-14.17,6.44-22.13,7a38.1,38.1,0,0,1-16.44-2.52c-1.93-.74-3.94-1.29-5.9-2a1.51,1.51,0,0,0-2,.7c-4.83,6.64-7.76,13.91-7.72,22.25.05,10.87,0,21.75,0,32.62,0,.32,0,.63.07,1.06.93-.15,1-1,1.33-1.53,1.72-3.42,3.25-7,5.1-10.31,7.55-13.68,18.48-23.13,34-26.54,10.61-2.32,21.12-1.56,31.52,1.37a67.31,67.31,0,0,1,9.73,3.35,11.88,11.88,0,0,0,8.38.53c7.33-2,14.58-4.18,21.8-6.52s14.71-4.87,22.27-6.59c1.5-.34,1.64-1.31,1.89-2.37q2.51-10.49,5-21c1.16-4.89,2.24-9.8,3.5-14.67a2.53,2.53,0,0,0-.85-2.94c-.18-.16-.33-.36-.52-.5-2.75-2.08-3.6-4.87-3.42-8.23a8.87,8.87,0,0,1,8.44-8.48,9.85,9.85,0,0,1,10.69,10A6.4,6.4,0,0,1,703,499a20.74,20.74,0,0,1-4.81,2.66,4.11,4.11,0,0,0-2.43,2.74A86.12,86.12,0,0,0,692.88,516a199.84,199.84,0,0,1-5.41,22.09c-.86,2.94-.3,4.69,2,6.72,8.81,7.78,17.41,15.79,26,23.75a3.4,3.4,0,0,0,4.08.86c6.88-2.37,12.81,3.27,12.22,8.16a9.89,9.89,0,0,0,0,1.44,7.35,7.35,0,0,1-4.93,7.49c-5.89,2.38-10.57.66-13.42-5a6.69,6.69,0,0,1-.08-6.45c.67-1.22.25-1.8-.61-2.59Q700,560.71,687.25,548.88c-1-.93-2-1.83-3-2.79a1.73,1.73,0,0,0-2.15-.37c-11.36,4.59-23.25,7.46-35,10.75-4.08,1.14-8,2.67-12.2,3.52a3.68,3.68,0,0,0-2.67,2.18,76.24,76.24,0,0,1-21.43,27A130.16,130.16,0,0,1,572.72,611a49.51,49.51,0,0,1-10.45,2.54c-1.26.16-1.59.64-1.57,1.81q.09,5.28,0,10.56c0,1.27.46,1.73,1.68,1.61.55,0,1.12,0,1.68,0h67.4c.56,0,1.12,0,1.68,0,1.8,0,1.83,0,1.83,1.88q0,20.5,0,41c0,1.73,0,1.74-1.69,1.79-.48,0-1,0-1.44,0q-93.32,0-186.62,0c-3.6,0-3.13.47-3.13-3.22q0-19.19,0-38.38c0-.64,0-1.28,0-1.92s.26-1.21,1.1-1.17c.64,0,1.28,0,1.92,0h68.61a15.51,15.51,0,0,1,1.67,0c1.33.15,1.61-.51,1.6-1.69-.05-3.52,0-7,0-10.56,0-1-.19-1.55-1.39-1.7-9.91-1.26-18.91-5.13-27.53-10a148.37,148.37,0,0,1-26.85-19.62,75.66,75.66,0,0,1-15.06-19.44,11.23,11.23,0,0,0-7.18-5.91c-13-3.19-25.46-7.92-38.33-11.41-1.7-.46-3.43-.79-5.1-1.31a2.31,2.31,0,0,0-2.58.57Q379,559.09,365,571.67a2.78,2.78,0,0,0-1,2.74,27.16,27.16,0,0,1,.38,3.82,9,9,0,0,1-8.51,9.25,9.54,9.54,0,0,1-10.64-10.81,6.48,6.48,0,0,1,2.57-4.71c3.41-2.54,7.08-4.08,11.34-2.13,1.06.48,1.67-.08,2.33-.66,2.4-2.1,4.81-4.21,7.17-6.37q10-9.13,19.62-18.69a6,6,0,0,0,1.8-6.22c-.8-3.42-1.59-6.84-2.58-10.21a141,141,0,0,1-4.36-19.38,18,18,0,0,0-.7-2.78,5.09,5.09,0,0,0-3.81-3.91,6.57,6.57,0,0,1-1.11-.44c-4-1.76-5.63-4.24-5.42-8.13a9.81,9.81,0,0,1,6.37-9c5.12-1.72,11.47,1.36,12.47,6.3,1,5.12-.26,8.08-4,10.31a1.87,1.87,0,0,0-1,2.48c3,12.18,5.86,24.38,8.77,36.57a2.29,2.29,0,0,0,1.72,2c12.15,3.4,24,7.74,36.14,11.23,3.07.88,6.15,1.7,9.27,2.41a11.15,11.15,0,0,0,6.77-.52c4.47-1.71,8.88-3.66,13.58-4.68,9.21-2,18.55-2.9,27.81-.69,12,2.87,22.06,9.07,29.48,19.2a74.53,74.53,0,0,1,9,16.34A25.5,25.5,0,0,0,530.66,589.47Z"/><path class="cls-18" d="M704.19,573.11c-.37,1.88-.68,3.77-1.11,5.63C701.55,585.19,700,591.63,698,598c-.25.76-.56,1.5-.78,2.27a3.09,3.09,0,0,1-2.26,2.21c-8.66,2.82-17.39,5.35-26.25,7.49a3.41,3.41,0,0,1-3.45-.92c-3.18-2.91-6.41-5.78-9.59-8.7-3.47-3.19-6.88-6.45-10.36-9.63a2.8,2.8,0,0,1-1-2.95c1.77-9,4.3-17.84,6.55-26.74.35-1.37,1.32-1.65,2.4-2l21.62-6.31c1.68-.49,3.41-.88,5-1.5a2.53,2.53,0,0,1,3,.7c3.28,3.05,6.65,6,9.92,9.06s6.48,6.18,9.66,9.33C703.28,571,704.24,571.78,704.19,573.11Z"/><path class="cls-1" d="M453.27,525.22c.28,1.34-.69,2.34-1.7,3.26q-5.06,4.6-10.15,9.16c-3.23,2.86-6.56,5.62-9.56,8.73a2.3,2.3,0,0,1-2.7.74q-13.64-4.12-27.33-8.06a2.36,2.36,0,0,1-1.86-1.89c-2.16-9-4.32-18-6.56-27a2.21,2.21,0,0,1,.89-2.46q8.82-7.95,17.61-15.93c1-.91,2.08-1.76,3-2.76a3.1,3.1,0,0,1,3.65-.86c5.25,1.66,10.54,3.21,15.81,4.8,3.67,1.11,7.34,2.21,11,3.34.73.22,1.52.31,1.62,1.43.55,6.26,2.73,12.13,4.35,18.13A43.39,43.39,0,0,1,453.27,525.22Z"/><path class="cls-1" d="M397.91,551.15c.44.12,1.07.25,1.68.43,8.4,2.55,16.78,5.14,25.21,7.62a3.12,3.12,0,0,1,2.4,2.57q3.24,13.13,6.18,26.33a2.9,2.9,0,0,1-1.1,2.94q-6.63,6.42-13.6,12.48c-2.16,1.89-4.42,3.68-6.61,5.54a4.12,4.12,0,0,1-4,.9c-4.6-1.07-9-2.74-13.48-4.19a87.51,87.51,0,0,0-12.89-3.63c-1.16-.18-1.33-.88-1.54-1.78-1.24-5.28-2.52-10.56-3.78-15.83-.83-3.5-1.55-7-2.52-10.47a2.89,2.89,0,0,1,.87-3.17c4.19-4.29,8.58-8.37,13.06-12.36,2.45-2.18,4.9-4.34,7.55-6.28A4.25,4.25,0,0,1,397.91,551.15Z"/><path class="cls-19" d="M600.38,428.21c0,4.15-.06,8.3,0,12.45a3.53,3.53,0,0,1-1.6,3.23c-2.13,1.56-4.37,2.94-6.64,4.28-5.84,3.44-11.85,6.59-17.82,9.81a2.72,2.72,0,0,1-3-.06c-6.31-3.59-12.8-6.87-19-10.65a55.29,55.29,0,0,1-5-3.34,3.53,3.53,0,0,1-1.47-3.07q.07-12.69,0-25.4a3.27,3.27,0,0,1,1.51-3c.72-.49,1.4-1.06,2.13-1.54a225.87,225.87,0,0,1,21.54-12.45,4.13,4.13,0,0,1,4.43,0c7.28,4.15,14.63,8.19,21.63,12.8,3.29,2.17,3.27,2.2,3.27,6.14Z"/><path class="cls-18" d="M715.37,561.89c-.82.08-1.32-.46-1.88-.91-4-3.27-7.88-6.76-11.66-10.31-2.85-2.68-5.77-5.29-8.38-8.22a3.84,3.84,0,0,1-1-3.65,208.49,208.49,0,0,1,6-24.14,6.39,6.39,0,0,1,4.53-4.68c8.14-2.6,16.36-4.86,24.66-6.84a2.38,2.38,0,0,1,2.39.52q10.56,9.39,21.16,18.75a2,2,0,0,1,.61,2.11c-.62,4-1.59,7.81-2.5,11.69-1.17,5-2.47,10.07-3.85,15.07a3.39,3.39,0,0,1-2.45,2.6q-13.09,4.22-26.38,7.82A11.17,11.17,0,0,1,715.37,561.89Z"/><path class="cls-19" d="M565.75,368.79c0,4.47,0,8.94,0,13.42a3.63,3.63,0,0,1-1.58,3.25,55.94,55.94,0,0,1-6.42,4.17c-5.91,3.33-11.86,6.6-17.75,9.94a2.11,2.11,0,0,1-2.4,0q-12.37-7-24.82-14a2.3,2.3,0,0,1-1.35-2.26q0-13.31-.21-26.59a2.85,2.85,0,0,1,1.32-2.61c1.52-1,3-2.11,4.56-3.09,6.27-4,12.76-7.58,19.23-11.22a4,4,0,0,1,4.26-.08c2.17,1.19,4.35,2.35,6.5,3.57,5.89,3.34,11.45,7.3,17.78,9.84,1,.42.84,1.23.85,2C565.76,359.68,565.75,364.24,565.75,368.79Z"/><path class="cls-1" d="M385.56,539.66c.17,1.38-.72,2.28-1.53,3.13-2.1,2.19-4.22,4.38-6.44,6.44-4.21,3.92-8.48,7.77-13,11.33a4.86,4.86,0,0,1-4.86.91c-8.13-2.33-16.2-4.86-24.27-7.38a4,4,0,0,1-3.12-3.14c-2.14-8.59-4.3-17.18-5.95-25.88a2.66,2.66,0,0,1,.85-2.74c6.53-6.36,13.32-12.43,20.17-18.44a3.21,3.21,0,0,1,3.26-.71c8.59,2.18,17.06,4.77,25.54,7.33,1.82.55,2.47,1.87,3,3.39a133.22,133.22,0,0,1,4.35,15.42c.64,2.8,1.15,5.63,1.71,8.44C385.4,538.39,385.46,539,385.56,539.66Z"/><path class="cls-19" d="M532.48,428.2c0,4.16-.06,8.32,0,12.47a3.58,3.58,0,0,1-1.69,3.43c-1.4.93-2.75,1.93-4.18,2.8-6.62,4.05-13.5,7.6-20.37,11.19a1.89,1.89,0,0,1-2.18.08c-5.62-3.53-11.63-6.36-17.39-9.64a74.64,74.64,0,0,1-6.91-4.32,3.79,3.79,0,0,1-1.72-3.42q.1-12.6,0-25.19a3.34,3.34,0,0,1,1.61-3.2c1.41-.9,2.76-1.9,4.18-2.8,6.28-4,12.76-7.6,19.25-11.23a3.63,3.63,0,0,1,3.8-.16A233,233,0,0,1,530.1,411.7a4.85,4.85,0,0,1,2.43,4.75C532.33,420.36,532.48,424.28,532.48,428.2Z"/><path class="cls-18" d="M684.46,509.6c-.5,2.18-1,4.35-1.5,6.53-1.46,6.29-2.91,12.58-4.63,18.8a6.72,6.72,0,0,1-5.21,5.21c-6.39,1.72-12.75,3.54-19.12,5.34a50.25,50.25,0,0,0-5,1.58,1.94,1.94,0,0,1-2.35-.45c-2.1-2-4.25-3.87-6.37-5.81-4.83-4.42-9.63-8.88-14.49-13.27a2.52,2.52,0,0,1-.84-3.07c1.88-6.1,2.83-12.43,4.28-18.64.53-2.25,1.14-4.48,1.65-6.74a4.12,4.12,0,0,1,3.27-3.33c7.29-2,14.55-4.21,21.82-6.35a24.65,24.65,0,0,0,3.19-1,2.89,2.89,0,0,1,3.61.67c6.79,6.19,13.66,12.28,20.51,18.39C683.93,508,684.73,508.51,684.46,509.6Z"/><path class="cls-22" d="M429.28,649.71V623.58a13.83,13.83,0,0,0,0-1.44c-.13-1.26.45-1.67,1.67-1.66,3.59,0,7.19,0,10.79,0,1.11,0,2.23,0,3.35,0,.91,0,1.21.43,1.28,1.31.28,3.44.24,3.51-3.15,3.51-2.23,0-4.47,0-6.71,0-1.11,0-1.6.38-1.55,1.54.07,1.43,0,2.87,0,4.31v40.27c0,3-.34,2.75,2.89,2.77,2.23,0,4.47,0,6.71,0,1.71,0,1.71,0,1.77,1.74q0,.48,0,1c0,2.08,0,2.1-2.11,2.11-4.32,0-8.63,0-13,0-2,0-2,0-2-2Q429.27,663.37,429.28,649.71Z"/><path class="cls-21" d="M647,649.85v26.36c0,.56,0,1.12,0,1.68,0,.82-.38,1.14-1.16,1.13s-1.6,0-2.4,0c-3.59,0-7.19,0-10.78,0-1.88,0-1.92,0-1.92-1.81,0-3.44-.29-3,2.87-3,2.24,0,4.48,0,6.71,0,1.73,0,1.75-.05,1.78-1.72,0-2,0-4,0-6V628.61c0-.48,0-1,0-1.44-.05-1.79-.05-1.82-1.93-1.84-2.63,0-5.27,0-7.91,0-1.1,0-1.57-.33-1.55-1.51.06-4-.24-3.28,3.07-3.31,3.76,0,7.51,0,11.27,0,1.92,0,2,0,2,2Q647,636.18,647,649.85Z"/><path class="cls-21" d="M500.68,728.23a6.87,6.87,0,0,1-.6,2.93c-1.08,3.17-2.44,6.26-2.82,9.63-.06.55-.29.91-.9.83-1.27-.17-2.53-.35-3.8-.55a1,1,0,0,1-.89-1.36c.45-1.87,1.05-3.69,1.66-5.5a23.6,23.6,0,0,0,1.64-6.73c0-.81.1-1.67-.87-2a2.18,2.18,0,0,0-2.61.6,8.89,8.89,0,0,0-1.41,2.49,53.58,53.58,0,0,0-2.38,8.52c-.43,1.9-.49,1.93-2.4,1.64l-2.13-.34c-1.51-.23-1.57-.27-1.23-1.85a67.37,67.37,0,0,1,2.4-7.28,11.67,11.67,0,0,0,.86-4.67c-.07-.92-.24-1.77-1.33-2a2,2,0,0,0-2.34,1.22,18.74,18.74,0,0,0-1.48,4c-.65,2.39-1.25,4.79-1.94,7.17-.43,1.49-.82,1.78-2.23,1.41-4-1.06-3.68-.36-3.12-4.23a28.2,28.2,0,0,1,3.07-9.52,12.76,12.76,0,0,1,2.76-3.6c2.46-2.12,5.16-2.79,8.18-1.26a16.54,16.54,0,0,1,2.11,1.15,4.5,4.5,0,0,0,2.69.8,13.58,13.58,0,0,1,2.37.29C498.61,720.89,500.72,723.43,500.68,728.23Z"/><path class="cls-21" d="M503.55,738.94a31,31,0,0,1,1.77-9.82c1.09-2.79,2.71-5.07,5.86-5.82a8.46,8.46,0,0,1,6,.91,4.58,4.58,0,0,0,3.37.46,7.92,7.92,0,0,1,8.06,2.47,7.53,7.53,0,0,1,1.7,6.26c-.46,3.64-1,7.28-1.41,10.93-.14,1.25-.73,1.67-1.88,1.56-.56-.06-1.12-.1-1.66-.21-2-.37-2-.38-1.77-2.47.37-3.09.74-6.18,1.13-9.27a6.37,6.37,0,0,0,0-1.9,2.14,2.14,0,0,0-2.88-1.92c-.83.21-.84.9-.94,1.5-.53,3.14-1,6.3-1.54,9.45-.72,4.23-.13,3.32-4.08,3.43-1.78,0-1.84,0-1.64-2,.34-3.33.77-6.66,1.16-10,.07-.56.13-1.11.21-1.67a1.63,1.63,0,0,0-1.2-2,2.16,2.16,0,0,0-2.59.68,7,7,0,0,0-1.05,2.4,35.61,35.61,0,0,0-.94,8.79c0,2.55.18,2.44-2.54,2.4C503.09,743.09,503.57,743.74,503.55,738.94Z"/><path class="cls-21" d="M471.78,719.47a10.81,10.81,0,0,1-11.12,11.23c-5.76,0-10.1-4.71-10.08-11,0-5.72,4.18-10.28,9.39-10.31C465.54,709.39,472.21,712.62,471.78,719.47Z"/><path class="cls-21" d="M668,700.56c.47.7.76,1.25-.2,2-3,2.23-3,2.27-5.4-.58-3.55-4.21-7.12-8.42-10.67-12.62a5.25,5.25,0,0,1-.37-.67c2.6-2,5.1-4.19,8.06-5.67a7,7,0,0,1,5.81.12,3.38,3.38,0,0,1,2,2.83,1.69,1.69,0,0,0,1.67,1.67,8.71,8.71,0,0,1,2.65,1.06c4,1.9,3.83,8,.84,9.87-1.13.73-2,2.23-3.72,1.39-1.36-.24-1.77-1.39-2.29-2.43-.16-.88.49-1.48.8-2.2a1.65,1.65,0,0,0,0-1.81c-.49-.64-1.15-.43-1.75-.19-.93.37-1.83.66-2.62-.28-.4-.53-1.07-.86-1.21-1.59a2.55,2.55,0,0,1,.48-1.29c.26-.48.57-1,.1-1.49-.31-.34-.72-.22-1.07,0a1,1,0,0,0-.36,1.56c.17.26.35.51.5.78a4.13,4.13,0,0,0,1.28,1.83,28.64,28.64,0,0,1,3.89,5.08C666.9,698.79,667.77,699.49,668,700.56Z"/><path class="cls-22" d="M534.66,732.66c0-2,0-4,0-6,0-1,.31-1.45,1.36-1.43,5.33.06,4.21-.56,4.31,4,.06,2.72,0,5.43,0,8.15a2.59,2.59,0,0,0,1.82,2.77c1.83.61,3-.15,3.06-2.08.06-3.27,0-6.55,0-9.82,0-.88,0-1.76,0-2.64s.33-1.07,1.14-1.16c4.46-.44,4.53-.39,4.53,4,0,2.71,0,5.43,0,8.14a17.58,17.58,0,0,1-.21,2.62c-.46,3-1.83,5.39-4.86,6.24-3.43,1-6.68.45-9.24-2.32a6.87,6.87,0,0,1-1.94-4.77c0-1.92,0-3.83,0-5.75Z"/><path class="cls-22" d="M570.52,743.14a9.59,9.59,0,0,0-1.2,0c-1.14.14-1.53-.39-1.65-1.47-.37-3.17-.84-6.33-1.27-9.5a9.5,9.5,0,0,0-.17-1.42c-.26-.89.07-2.16-1.61-2.11-1.87.07-2.6.42-2.88,2.14-.46,2.72.22,5.4.49,8.1.14,1.35.4,2.68.57,4,.18,1.51.15,1.52-1.46,1.74l-.48,0c-3.71.48-3.69.47-4-3.18-.28-3.26-.59-6.52-.91-9.78-.4-4,1.63-7,5.68-8.24a7.3,7.3,0,0,1,9,3.53,19.32,19.32,0,0,1,2.29,7.27c.32,2.29.47,4.6.58,6.92.09,1.87,0,1.87-1.78,1.92Z"/><path class="cls-21" d="M647.88,707.79l3.69,5.84c-.12.15-.18.32-.31.39-1.53.82-3.12,2.36-4.68,2.05s-2-2.5-2.91-3.88c-2.37-3.6-4.66-7.24-7-10.87-1.1-1.73-1.09-1.8.53-3.08a28.81,28.81,0,0,1,6.51-4,6.93,6.93,0,0,1,9.16,3.24,10.45,10.45,0,0,1,1.16,4.6c.09,2.17-2.73,5.39-4.82,5.59-.25,0-.53-.32-.79-.49-1.34-.78-1.88-2.16-2.59-3.41a2.57,2.57,0,0,1,.86-1.66c.43-.55,1.16-1.18.38-1.83s-1.9-.19-2.72.2c-1,.48-.07,1.08.19,1.55.39.69.84,1.36,1.23,2.05A10.59,10.59,0,0,1,647.88,707.79Z"/><path class="cls-22" d="M617.11,709.13c.91,2.39,1.74,4.55,2.55,6.71a5.73,5.73,0,0,1-1.07,6.26,3,3,0,0,0-.47,3.85c.47.92.72,1.95,1.14,2.89.34.77.12,1.09-.63,1.44-3.8,1.77-4.5,1.51-5.76-2.6a2.26,2.26,0,0,0-2.22-1.95,7.54,7.54,0,0,1-6.34-4.86c-.73-1.68-1.39-3.4-2.14-5.08-.31-.69-.09-1,.53-1.29,1.19-.47,2.38-.92,3.57-1.4.8-.32,1.18,0,1.32.78a12.84,12.84,0,0,0,2,5.09,2.48,2.48,0,0,0,2.86,1.23,2.15,2.15,0,0,0,1.71-3.06c-.56-1.57-1.29-3.09-1.89-4.65s-.6-1.72,1-2.23C614.45,709.86,615.68,709.54,617.11,709.13Z"/><path class="cls-22" d="M435,712.43c-1.14-6.52,8-13.08,14.83-9.66a7.25,7.25,0,0,1,1.8,1.15c1.24,1.19,1.3,1.94.26,3.31-.34.44-.74.83-1.11,1.25-.54.62-1.12.89-1.83.26a2.16,2.16,0,0,0-.4-.27c-3.62-2.16-7.17-.76-8.39,3.33-.63,2.12.37,4,2.77,5.16,2.11,1,2.16,1.16,1.17,3.26-1.18,2.5-2.35,2.89-4.72,1.38-2.76-1.75-4-4.46-4.37-7.6A11.82,11.82,0,0,1,435,712.43Z"/><path class="cls-22" d="M600.35,736.62c-4.69,1.53-4.86,1.49-6.38-3-.88-2.64-1.59-5.34-2.37-8-.5-1.71-.52-1.72-2.31-1.49l-.47.08c-.84.09-2,.79-2.44,0a5.75,5.75,0,0,1-.81-3.42,1.44,1.44,0,0,1,1-1.22,49.06,49.06,0,0,1,12-3.16c.79-.12,1.19.26,1.32,1s.28,1.73.47,2.59-.15,1.2-.92,1.33a7.92,7.92,0,0,0-.92.26c-1.6.46-1.62.47-1.23,2.13.63,2.71,1.31,5.41,2,8.12C599.6,733.39,600,735,600.35,736.62Z"/><path class="cls-22" d="M413.24,705c2.46-3.56,4.77-6.9,7.07-10.25,1.51-2.2,1.4-1.7-.14-3.58-.31-.37-.59-.76-.91-1.12a1,1,0,0,1,0-1.48c.75-.92,1.44-1.87,2.27-2.95,3.45,2.34,6.87,4.67,10.3,7a1.46,1.46,0,0,1,.65,1.65,5,5,0,0,1-1,2.16c-1.08,1.39-2,1.5-3.43.46a3.74,3.74,0,0,0-1.77-1l-6.94,9.33c-.34.45-.69.89-1,1.35a1.14,1.14,0,0,1-1.8.44C415.6,706.31,414.54,705.75,413.24,705Z"/><path class="cls-22" d="M575.87,721.37c5.32-1.57,5.31-1.57,6.38,3.63,1,4.67,2,9.34,3,14,.23,1,0,1.5-1,1.71-.31.07-.63.14-.94.19-3.26.56-3.4.45-4.09-2.75-1-4.82-2.09-9.64-3.12-14.46A6.24,6.24,0,0,1,575.87,721.37Z"/><path class="cls-22" d="M400.82,695.35l6.5-7c2.22-2.4,4.47-4.78,6.65-7.21.67-.75,1.2-.85,2-.22,1,.79,2,1.49,3.06,2.24-.16.82-.79,1.23-1.25,1.75-3.72,4.17-7.47,8.3-11.16,12.49-.77.88-1.37,1.1-2.34.31S402.18,696.27,400.82,695.35Z"/><path class="cls-22" d="M640.83,719.51c-1.73.89-3.28,2.29-4.78,2s-1.73-2.48-2.46-3.85c-2.17-4.09-4.25-8.23-6.34-12.37-.72-1.41-.71-1.49.69-2.12,4.14-1.84,3.08-2.09,5.06,1.55C635.62,709.56,638.16,714.45,640.83,719.51Z"/><path class="cls-23" d="M646.13,703.72a12.85,12.85,0,0,1,2.32,3.47l-.57.6a12.35,12.35,0,0,1-2.34-3.46A.69.69,0,0,1,646.13,703.72Z"/><path class="cls-24" d="M668,700.56a6.15,6.15,0,0,1-1.88-2.46.67.67,0,0,1,.58-.58,11.18,11.18,0,0,0,1.93,2.4Z"/><path class="cls-20" d="M518.86,599.16a35.47,35.47,0,0,1-6.51-1.43,114.56,114.56,0,0,1-16.54-6.27c-9.19-4.39-14.89-11.78-17.92-21.36-.51-1.59-.37-1.76,1.29-1.94,2.22-.24,4.45-.39,6.67-.64A19.35,19.35,0,0,1,497.61,570a44.13,44.13,0,0,1,20,22.43A13.31,13.31,0,0,1,518.86,599.16Z"/><path class="cls-20" d="M558.18,599.11a13,13,0,0,1,1.22-5.88,45.39,45.39,0,0,1,19.28-22.53,22.67,22.67,0,0,1,15-3c1.58.22,3.17.39,4.76.57.9.1,1.22.58,1.09,1.46a14,14,0,0,1-1.21,4.13c-3.66,7.7-8.75,14-16.69,17.79A109.8,109.8,0,0,1,558.18,599.11Z"/><path class="cls-20" d="M457.55,653.21c0-2.4,0-4.8,0-7.2a10.11,10.11,0,0,1,12.56-9.35c2.31,1.9,4.48.87,7,.09a9.45,9.45,0,0,1,12.18,8.19c.43,3.49.12,7,.18,10.53q0,2.64,0,5.28c0,1.75-.07,1.81-1.72,1.79s-3.74.69-4.89-.28-.41-3.15-.44-4.79c-.07-3.84,0-7.67,0-11.51,0-1,.11-2.05-1-2.47a4.14,4.14,0,0,0-3.47.41c-.78.43-.53,1.26-.54,2,0,4.15,0,8.31,0,12.47,0,.95,0,1.92,0,2.87s-.44,1.41-1.44,1.38c-1.36-.05-2.72-.07-4.08,0-1.2.07-1.49-.47-1.48-1.56,0-4.24,0-8.47,0-12.71a8.61,8.61,0,0,0-.38-3.07,2.48,2.48,0,0,0-2.92-1.89,2.58,2.58,0,0,0-2.37,2.56c-.08,1,0,1.92,0,2.88,0,4,0,8,0,12,0,1.73,0,1.75-1.7,1.78-1.27,0-2.56-.06-3.83,0s-1.62-.52-1.6-1.7C457.59,658.32,457.55,655.76,457.55,653.21Z"/><path class="cls-20" d="M621.47,649.81a9.48,9.48,0,0,1-3.11,8.83,15.8,15.8,0,0,1-10.49,4.58c-6.58.27-13.25-6.74-13.31-14,0-6.61,6.39-12.67,14.06-12.87,3.77-.1,6.91,1.69,9.6,4.28A10,10,0,0,1,621.47,649.81Z"/><path class="cls-20" d="M538.24,506.7a47.68,47.68,0,0,0-4.13-6.76,19.83,19.83,0,0,1-3-10c-.26-4.75.08-9.41,2.19-13.78a15.72,15.72,0,0,1,4.58-5.75,1.25,1.25,0,0,1,1.86,0,15.22,15.22,0,0,1,3.55,4.47c5.67,10.35,3.54,21.4-3,30.05A4.82,4.82,0,0,1,538.24,506.7Z"/><path class="cls-20" d="M560.1,649.8c0-3.59,0-7.18,0-10.77,0-1.87,0-1.91,1.78-1.92,3.35,0,6.71.08,10.06,0,4.81-.14,8.47,5.2,7.81,9.82a3.62,3.62,0,0,1-1.78,2.71c-1,.56-.83,1.2-.34,2a1.51,1.51,0,0,0,.27.39c3,2.77,1.63,6.41,1.91,9.72,0,.58-.36.85-.92.85-1.68,0-3.35,0-5,0-.8,0-1.15-.35-1.14-1.16,0-1.51,0-3,0-4.55-.05-2-.37-2.53-2.37-3s-1.83-.58-1.85-2.6,0-2.14,2.11-2.8c1.59-.5,2.2-1.3,2.08-2.75s-1-2.28-2.72-2.42c-.32,0-.64,0-1,0-1.78,0-1.82,0-1.82,1.9,0,5.1,0,10.21,0,15.32,0,2,0,2-2,2-1.59,0-3.55.66-4.65-.28s-.38-3-.43-4.56C560,655.07,560.1,652.44,560.1,649.8Z"/><path class="cls-20" d="M561.58,524.65a8.32,8.32,0,0,1,3.24-3.89A42.78,42.78,0,0,1,581,513.87c5.42-1.23,10.79-.62,16.13.54a9.51,9.51,0,0,1,1.36.47,1.46,1.46,0,0,1,.93,2.11,6.92,6.92,0,0,1-2,2.92c-5.43,4.59-11.39,7.91-18.79,7.74-.87,0-1.75,0-2.63,0C569.68,527.65,568,527.3,561.58,524.65Z"/><path class="cls-20" d="M515.41,524.63c-4.06,1.93-8.13,3.32-12.69,3.06-3.41-.19-6.85.08-10.21-.85a28.52,28.52,0,0,1-11-5.66,13.6,13.6,0,0,1-3.69-4.65c-.29-.63-.43-1.13.53-1.42,11.33-3.4,22.07-2.36,32.07,4.21C512.51,520.67,514.53,522.12,515.41,524.63Z"/><path class="cls-20" d="M528.31,650.35c0-8,4.18-12.69,12-13.61,4.71-.55,4.07-1.3,4.13,3.5q0,.6,0,1.2c-.05,1.81-.05,1.81-1.88,1.87a10.48,10.48,0,0,0-2.85.26c-3.46,1.06-4.85,3.45-4.45,7.64.24,2.45,2.91,4.75,5.89,5.12,1,.12,2.3-.44,3,.35s.22,2.3.32,3.47a13.65,13.65,0,0,1,0,1.43c0,.54-.24.93-.83.95-3.51.09-7,.37-10-2.06C530.15,657.72,527.71,654.57,528.31,650.35Z"/><path class="cls-20" d="M538.93,541.17a1.9,1.9,0,0,1-1.14-1c-2.76-4-5.47-8.07-8.26-12-.72-1-.68-1.58.42-2.27,2.64-1.65,5.22-3.41,7.79-5.16a1.46,1.46,0,0,1,1.92-.06q4.05,2.79,8.15,5.48c.78.51.88.95.34,1.72C545,532.27,542,536.74,538.93,541.17Z"/><path class="cls-25" d="M505.6,649.68c0-3.59,0-7.19,0-10.79,0-1.73.05-1.81,1.71-1.76s3.87-.76,5.06.41c1,1,.29,3,.3,4.62,0,5.84,0,11.68,0,17.51,0,3.3.31,2.85-3,2.89-.63,0-1.27,0-1.91,0-2.14,0-2.16,0-2.17-2.08C505.59,656.88,505.6,653.28,505.6,649.68Z"/><path class="cls-25" d="M466.09,720.09a5,5,0,0,1-7.27,4.45c-3.12-1.57-4.17-4.43-2.6-7.09a6.06,6.06,0,0,1,8-1.79C465.83,716.73,466.13,718.35,466.09,720.09Z"/><path class="cls-26" d="M666.74,697.52l-.58.58-4-5.27a.54.54,0,0,1,.74-.09,1.43,1.43,0,0,0,2.1,0,1.91,1.91,0,0,1,2.78,0c.61.61.48,2.15-.26,3.07A2.3,2.3,0,0,0,666.74,697.52Z"/><path class="cls-27" d="M661,691.34c-.16-.18-.32-.36-.47-.55-1.51-1.95-1.49-2,.74-2.9.5-.2,1-.64,1.5,0a1.55,1.55,0,0,1,.35,1.77,16.33,16.33,0,0,1-1.23,1.76A.56.56,0,0,1,661,691.34Z"/><path class="cls-28" d="M661,691.34l.89,0,1,1.36-.74.09A2.81,2.81,0,0,1,661,691.34Z"/><path class="cls-29" d="M646.13,703.72l-.59.61a20.31,20.31,0,0,1-2.64-4,24,24,0,0,1,3.74-1.05c.84-.26,1.12.24,1.43.86s.45,1.14-.18,1.68S646.38,702.78,646.13,703.72Z"/><path class="cls-22" d="M601.81,649.76a6.15,6.15,0,0,1,6.25-6.44,6.9,6.9,0,0,1,7.15,6.57c.07,3-3.67,6.4-7.2,6.46C604.72,656.4,601.82,653.32,601.81,649.76Z"/></svg>