<svg width="214" height="216" viewBox="0 0 214 216" fill="none" xmlns="http://www.w3.org/2000/svg">
<path d="M107.695 0.201175C111.872 0.53635 116.027 1.1093 120.139 1.91725C124.698 2.83127 129.188 4.05897 133.578 5.59163C135.772 6.35935 137.916 7.2338 140.069 8.11647C142.688 9.17157 145.165 10.5223 147.703 11.7375C149.084 12.3985 150.372 13.2483 151.704 14.0119C153.857 15.2435 155.923 16.6353 157.981 18.0229C159.412 18.9836 160.745 20.0962 162.163 21.0815C163.131 21.7548 163.898 22.6744 164.927 23.2574C165.011 23.3093 165.089 23.3698 165.16 23.438C168.041 25.8708 170.779 28.4684 173.36 31.2178C174.894 32.86 176.444 34.5022 177.829 36.2798C179.215 38.0575 180.662 39.9419 182.052 41.7934C183.766 44.0761 185.218 46.5106 186.714 48.9287C186.751 48.9821 186.796 49.0313 186.833 49.0847C186.997 49.3146 187.108 49.6061 186.833 49.7744C186.558 49.9427 186.398 49.6718 186.214 49.4665C184.91 48.0091 183.701 46.4654 182.417 44.9916C180.17 42.4093 177.587 40.1841 175.189 37.7701C173.993 36.6138 172.723 35.5359 171.388 34.5432C170.126 33.5661 168.928 32.4905 167.645 31.5545C165.931 30.3023 164.172 29.1199 162.405 27.9417C160.232 26.4924 157.969 25.191 155.681 23.9224C152.93 22.3911 150.089 21.0486 147.239 19.7226C145.017 18.6921 142.701 17.8669 140.392 17.0294C136.723 15.7203 132.982 14.6237 129.187 13.745C125.036 12.7903 120.835 12.0666 116.604 11.5774C110.918 10.8794 105.211 10.9451 99.5198 11.1217C93.8903 11.3336 88.2921 12.0633 82.796 13.3017C78.2923 14.3082 73.8502 15.5734 69.4916 17.091C67.4826 17.7807 65.5269 18.6264 63.5548 19.4147C61.1153 20.3917 58.8071 21.6357 56.4496 22.7688C54.949 23.4914 53.5181 24.3535 52.079 25.1951C50.6399 26.0367 49.0737 26.9276 47.6592 27.9211C46.0561 29.0419 44.4079 30.0888 42.8418 31.2671C41.6405 32.1662 40.4392 33.0694 39.283 34.0177C38.3769 34.7608 37.4585 35.4998 36.5606 36.2552C34.1591 38.295 31.8784 40.4732 29.73 42.7787C28.5743 43.929 27.4794 45.139 26.45 46.4038C25.917 47.0977 25.2857 47.7258 24.7281 48.4114C23.6375 49.7539 22.5346 51.08 21.5137 52.4799C20.0896 54.4341 18.7148 56.4211 17.3891 58.441C16.6579 59.4846 15.9818 60.5658 15.3637 61.6802C14.2321 63.8602 12.9037 65.9334 11.8828 68.175C10.5462 71.1268 9.23834 74.091 8.06574 77.1167C6.24794 81.9306 4.81795 86.8825 3.78947 91.925C3.06629 95.3517 2.55013 98.8188 2.24378 102.308C1.92398 105.871 1.76818 109.443 1.62468 113.015C1.62468 113.319 1.73129 113.68 1.30899 114C0.760779 111.503 0.411177 108.966 0.263487 106.413C0.119987 106.003 0.124093 105.592 0.013394 105.161C0.0030882 105.045 0.0030882 104.928 0.013394 104.812C0.013394 100.671 0.013394 96.5272 0.013394 92.3807C-0.0208663 91.2413 0.0106112 90.1008 0.107685 88.965C0.107685 85.1305 0.927688 81.4069 1.66568 77.6791C2.39192 74.1089 3.34088 70.5877 4.50697 67.1363C5.43766 64.3693 6.52005 61.6556 7.68445 58.9747C9.2932 55.2325 11.1548 51.6045 13.2563 48.1158C15.3237 44.736 17.5696 41.4689 19.9844 38.3284C23.362 34.016 27.0803 29.9824 31.1035 26.2666C33.8403 23.7242 36.7382 21.3614 39.7791 19.193C42.5971 17.1512 45.4999 15.2463 48.4874 13.4782C52.1171 11.3807 55.8654 9.49587 59.7132 7.8332C63.5058 6.19612 67.4041 4.81631 71.3817 3.70312C76.4474 2.21612 81.6268 1.1492 86.8673 0.513181C88.6262 0.303803 90.3851 0.213483 92.1481 0.102636H93.6282C93.8537 0.0697926 94.0997 0.18064 94.3047 0H105.715C105.994 0.197061 106.309 0.0615817 106.605 0.102636C106.974 0.156007 107.347 0.0328521 107.695 0.201175Z" fill="#7A75B5"/>
<path d="M0.0104007 88.8892C0.737742 88.6802 0.27017 88.2401 0.924777 88C1.2365 88.9247 0.477968 89.8139 0.488359 90.7386C0.592265 95.8068 0.488359 100.875 0.488359 105.943C0.461965 105.961 0.425796 105.975 0.383147 105.985C0.340498 105.995 0.29274 106 0.244195 106C0.19565 106 0.147861 105.995 0.105212 105.985C0.0625633 105.975 0.0263934 105.961 0 105.943L0.0104007 88.8892Z" fill="#B6B3D6"/>
<path d="M119.972 216H108.029C108.014 215.945 108.004 215.885 108.001 215.823C107.998 215.761 108.002 215.699 108.012 215.639C108.022 215.58 108.039 215.526 108.061 215.48C108.083 215.433 108.109 215.396 108.139 215.371C108.477 215.076 108.849 214.954 109.219 215.016C112.403 215.016 115.59 215.016 118.783 215.016C119.152 214.957 119.523 215.076 119.862 215.363C119.892 215.39 119.918 215.428 119.94 215.475C119.961 215.523 119.978 215.578 119.988 215.637C119.998 215.696 120.002 215.759 119.999 215.822C119.997 215.884 119.987 215.945 119.972 216Z" fill="#ABACAE"/>
<path d="M122 215.584C122 215.717 122 215.858 122 216H120.061C120.034 215.946 120.016 215.885 120.006 215.821C119.997 215.757 119.998 215.691 120.008 215.627C120.018 215.563 120.038 215.503 120.066 215.45C120.093 215.397 120.129 215.353 120.169 215.32C120.452 215.072 120.785 214.963 121.117 215.011C121.449 215.059 121.76 215.261 122 215.584Z" fill="#E5E6E6"/>
<path d="M108 1L106.147 0.888851C106.023 0.7333 105.978 0.555527 106.01 0.333311C106.043 0.111095 106.075 0 106.115 0H107.993C107.993 0.355546 107.993 0.666676 108 1Z" fill="#E5E5F0"/>
<path d="M106 216C106 215.859 106 215.727 106 215.586C106.24 215.261 106.552 215.059 106.885 215.011C107.217 214.963 107.552 215.073 107.835 215.323C107.874 215.357 107.909 215.401 107.936 215.454C107.963 215.506 107.982 215.566 107.992 215.63C108.002 215.693 108.003 215.758 107.994 215.822C107.986 215.886 107.968 215.946 107.942 216H106Z" fill="#EAEAEB"/>
<path d="M92 1C92 0.666676 92 0.333324 92 0H92.9322C92.9944 0.222216 93.0138 0.444451 92.9905 0.644446C92.9672 0.844441 92.9439 0.933338 92.9206 0.933338L92 1Z" fill="#E5E5F0"/>
<path d="M106.975 0C106.978 0.280717 106.987 0.559989 107 0.835558C106.65 0.960894 106.29 1.39958 106 0H106.975Z" fill="#BAB7D8"/>
<path d="M95 0C94.7765 1.21148 94.4288 1.0202 94.0935 0.935183C94.0066 0.722643 93.9818 0.510128 94.0128 0.297588C94.0439 0.0850473 94.0749 0 94.1059 0H95Z" fill="#A19ECB"/>
<path d="M93.9923 0C94.0026 0.332494 94.0026 0.667506 93.9923 1H93C93.0068 0.689279 93.0068 0.377383 93 0.0666621L93.9923 0Z" fill="#C6C4DF"/>
<path d="M120.752 216H120.159H108.558H107.965H106.799C100.414 215.51 94.0855 214.437 87.893 212.793C84.8292 211.97 81.8308 210.958 78.8447 209.912C74.6708 208.379 70.6073 206.557 66.6836 204.458C63.8716 203.004 61.1529 201.373 58.5434 199.576C56.9604 198.482 55.316 197.473 53.8107 196.283C52.559 195.291 51.3236 194.262 50.0556 193.307C48.7875 192.353 47.8549 191.06 46.4723 190.278C46.259 190.126 46.0653 189.947 45.8955 189.747C44.7747 188.64 43.658 187.528 42.5331 186.429C41.0359 184.964 39.727 183.326 38.3116 181.79C37.2031 180.588 36.2459 179.263 35.1538 178.049C34.4584 177.275 33.8652 176.402 33.2312 175.579C33.1338 175.447 33.0617 175.297 33.0185 175.139C32.9367 174.867 33.1371 174.69 33.4071 174.772C33.6468 174.88 33.8562 175.045 34.0166 175.254L37.2399 178.436C38.6103 179.794 40.1237 180.98 41.6209 182.194C42.6844 183.058 43.7398 183.923 44.8279 184.762C46.6359 186.158 48.5093 187.479 50.4155 188.71C52.4812 190.027 54.5061 191.377 56.6904 192.525C58.5352 193.501 60.3269 194.584 62.2167 195.473C65.5096 196.991 68.8475 198.399 72.2631 199.638C75.9795 200.987 79.7694 202.12 83.6143 203.034C87.7158 203.999 91.871 204.717 96.0577 205.183C99.5002 205.57 102.964 205.738 106.427 205.685C108.391 205.66 110.354 205.685 112.318 205.685C115.682 205.61 119.038 205.327 122.368 204.837C125.767 204.38 129.138 203.739 132.468 202.915C136.059 202.063 139.599 201.005 143.07 199.745C145.238 198.922 147.382 198.041 149.55 197.214C149.791 197.123 150.028 197.004 150.261 196.889C152.577 195.757 154.912 194.653 157.215 193.476C158.663 192.731 160.079 191.9 161.465 191.056C163.535 189.821 165.556 188.463 167.556 187.129C168.587 186.45 169.54 185.647 170.563 184.956C171.97 184.005 173.156 182.774 174.567 181.832C174.671 181.754 174.771 181.67 174.866 181.58C177.533 179.35 179.922 176.826 182.442 174.443C183.804 173.155 184.99 171.714 186.242 170.327C187.264 169.203 188.176 167.952 189.142 166.766C190.569 165.013 191.895 163.198 193.175 161.341C194.721 159.11 196.157 156.813 197.532 154.459C198.975 151.989 200.239 149.429 201.495 146.869C202.403 145.016 203.131 143.082 203.921 141.164C205.762 136.483 207.24 131.667 208.343 126.757C209.087 123.451 209.662 120.108 210.065 116.742C210.834 110.778 210.728 104.805 210.584 98.8082C210.539 97.0711 210.302 95.3341 210.143 93.6012C210.048 93.0695 210.068 92.5235 210.2 92C210.355 92.0648 210.49 92.1712 210.59 92.3076C210.689 92.444 210.75 92.6053 210.764 92.7738C211.803 96.5417 212.61 100.37 213.182 104.237C213.642 107.161 213.916 110.112 214 113.071V114.429C214 114.693 214 114.956 214 115.219C214 117.269 214 119.319 214 121.369C214 121.632 214 121.896 214 122.163V123.345C213.873 130.021 212.679 136.541 211.043 142.983C210.252 146.103 209.282 149.175 208.138 152.183C206.5 156.479 204.573 160.659 202.371 164.692C201.321 166.613 200.199 168.495 199.004 170.339C198.256 171.492 197.544 172.669 196.73 173.772C195.409 175.558 194.108 177.353 192.713 179.078C191.486 180.576 190.128 181.934 188.995 183.499C188.83 183.702 188.648 183.891 188.451 184.063C186.111 186.359 183.787 188.677 181.415 190.941C180.494 191.813 179.455 192.558 178.466 193.353C177.778 193.904 177.14 194.505 176.42 195.045C175.152 196.012 173.88 196.975 172.567 197.885C171.254 198.794 169.83 199.778 168.423 200.663C167.016 201.548 165.56 202.47 164.051 203.273C162.21 204.257 160.422 205.356 158.524 206.228C155.289 207.71 152.008 209.085 148.658 210.307C145.216 211.543 141.709 212.589 138.153 213.44C134.66 214.274 131.125 214.923 127.563 215.383C125.685 215.638 123.791 215.753 121.91 215.971L120.752 216Z" fill="#848688"/>
<path d="M9.00797 108.422C9.00797 106.817 9.0447 105.205 9.00797 103.6C8.99371 100.714 9.22172 97.8315 9.68957 94.9836C10.2103 91.2168 10.9766 87.4885 11.9833 83.8227C12.8568 80.7042 13.9016 77.639 15.0363 74.6026C16.5697 70.6341 18.3612 66.7714 20.3993 63.0395C21.2155 61.4885 22.1706 59.999 23.0849 58.4972C24.1215 56.7944 25.2603 55.1654 26.3949 53.5364C27.0642 52.5762 27.7785 51.6488 28.4846 50.7174C29.4682 49.4208 30.5988 48.2554 31.5293 46.9096C31.5681 46.8575 31.6104 46.8081 31.6559 46.7618C34.6312 43.4546 37.778 40.3238 41.0636 37.3243C42.5125 35.9948 44.0716 34.7557 45.643 33.5452C48.1449 31.6167 50.6917 29.7661 53.3569 28.0878C54.9894 27.0497 56.6588 26.0116 58.3893 25.1006C59.5974 24.4605 60.8082 23.8259 62.0218 23.1967C64.9613 21.7107 67.9777 20.3834 71.0581 19.2206C75.3815 17.5697 79.8155 16.2273 84.3268 15.2035C89.2881 14.0713 94.3309 13.3359 99.4077 13.0042C99.7342 13.0042 100.061 13.0042 100.387 13.0042C103.718 13.0042 107.044 13.0411 110.375 13.0042C114.305 12.9508 118.182 13.4145 122.056 14.0136C125.631 14.5732 129.174 15.3293 132.667 16.2786C136.006 17.1617 139.29 18.2399 142.504 19.5079C145.485 20.651 148.406 21.948 151.254 23.3937C153.216 24.4113 155.151 25.4836 157.058 26.6106C159.099 27.817 161.086 29.126 163.05 30.4595C164.546 31.4826 166.003 32.5686 167.421 33.7175C168.915 34.928 170.335 36.2205 171.821 37.4105C174.143 39.2898 176.094 41.5425 178.298 43.5285C178.959 44.7594 180.147 45.5309 180.975 46.6305C181.596 47.4512 182.314 48.2267 183.016 49.0104C183.996 50.1389 184.885 51.3493 185.771 52.5516C186.795 53.9426 187.812 55.3418 188.722 56.8067C189.412 57.9105 190.15 58.9896 190.803 60.1139C191.934 62.063 193.105 63.9956 194.097 66.0144C196.838 71.5564 199.065 77.3405 200.75 83.2933C202.138 88.3497 203.107 93.5128 203.648 98.7299C203.876 100.618 203.987 102.519 203.978 104.421C203.925 108.065 204.113 111.709 203.88 115.344C203.563 120.153 202.858 124.929 201.774 129.623C200.865 133.48 199.727 137.278 198.366 140.998C197.096 144.541 195.57 147.986 193.799 151.305C192.836 153.123 191.962 154.998 190.856 156.734C189.51 158.847 188.228 161.001 186.73 163.02C185.546 164.612 184.356 166.197 183.159 167.776C182.559 168.572 181.812 169.302 181.224 170.098C180.232 171.452 178.775 172.371 177.918 173.82C177.796 173.97 177.66 174.108 177.51 174.23C175.294 176.59 172.849 178.715 170.421 180.836C168.459 182.541 166.401 184.13 164.258 185.596C162.572 186.757 160.939 188.001 159.197 189.072C158.033 189.786 156.834 190.442 155.687 191.185C154.054 192.235 152.287 192.962 150.609 193.901C148.932 194.841 147.177 195.469 145.45 196.236C144.169 196.802 142.871 197.323 141.557 197.82C139.026 198.78 136.443 199.576 133.859 200.368C130.356 201.404 126.79 202.208 123.182 202.773C119.202 203.505 115.168 203.904 111.121 203.967C107.338 203.967 103.546 204.073 99.7669 203.905C93.6106 203.597 87.5023 202.651 81.5392 201.082C77.4975 200.052 73.5261 198.761 69.65 197.217C66.6112 196.038 63.6407 194.689 60.7524 193.175C57.4873 191.415 54.3038 189.527 51.2141 187.463C49.5122 186.327 47.8428 185.137 46.2307 183.889C44.745 182.736 43.292 181.53 41.8472 180.311C39.2922 178.157 36.9985 175.744 34.6272 173.405C33.5007 172.298 32.5089 171.03 31.4396 169.852C30.3702 168.674 29.5417 167.456 28.5295 166.307C27.652 165.314 26.9949 164.124 26.1663 163.082C24.9664 161.572 24.0358 159.885 22.9298 158.314C22.5216 157.756 22.2033 157.148 21.8645 156.561C20.2931 153.841 18.7626 151.092 17.4688 148.232C12.8596 138.329 10.0205 127.689 9.08144 116.797C8.97941 115.656 9.01614 114.499 9.01205 113.354C8.98757 111.704 9.00797 110.063 9.00797 108.422Z" fill="#393637"/>
<path d="M105.887 201.998C92.6924 202.081 79.6323 199.341 67.5846 193.962C57.628 189.63 48.4549 183.685 40.4349 176.368C33.8839 170.345 28.5612 163.345 23.8854 155.788C18.5914 147.195 15.2095 137.883 12.8716 128.132C11.5106 122.669 10.8868 117.047 11.0168 111.418C11.0783 109.421 11.0168 107.425 11.0455 105.432C11.1922 94.8768 13.3806 84.4495 17.49 74.7246C24.6593 57.5726 36.058 43.8003 51.2072 33.1294C61.3792 25.9231 72.8924 20.8256 85.0676 18.1377C89.4423 17.1654 93.8856 16.5321 98.3579 16.2433C102.77 15.9576 107.195 15.9235 111.611 16.141C133.033 17.2048 152.08 24.5247 168.523 38.293C182.492 49.8477 192.745 65.2584 198.003 82.601C199.744 88.2583 200.914 94.0756 201.495 99.9658C202.049 105.267 202.147 110.605 201.79 115.923C200.758 130.583 196.398 144.212 188.536 156.618C174.595 178.631 154.864 192.784 129.623 199.228C121.729 201.262 114.686 201.978 105.887 201.998Z" fill="#FDFDFD"/>
<path d="M106.582 200C79.5677 199.49 56.477 189.741 37.8234 169.862C26.9876 158.383 19.4644 144.134 16.0663 128.654C14.7768 123.007 14.0931 117.237 14.0272 111.442C13.9987 108.186 13.9457 104.93 14.1618 101.673C14.5784 95.5322 15.7175 89.4627 17.5549 83.5931C21.8451 69.827 28.7454 57.5593 38.5779 47.0536C46.0165 39.1043 54.7601 32.9087 64.3928 27.9358C71.4888 24.2761 78.9967 21.839 86.7249 20.0195C90.6573 19.0805 94.6545 18.4434 98.6821 18.1134C99.5916 18.0393 100.509 18.0188 101.419 18.0146C103.898 18.0146 106.378 17.9817 108.853 18.0146C122.327 18.2225 135.584 21.4658 147.657 27.5077C163.794 35.4734 176.612 47.21 186.078 62.5899C190.339 69.5018 193.239 77.0394 195.6 84.7952C197.067 89.5707 198.097 94.4723 198.675 99.4381C198.88 101.204 198.984 102.979 198.989 104.757C198.989 107.293 199.014 109.829 198.989 112.36C198.838 121.591 197.058 130.72 193.732 139.32C183.349 166.573 161.555 188.527 130.202 196.913C124.215 198.515 118.078 199.481 111.891 199.794C110.13 199.897 108.372 199.946 106.582 200Z" fill="#393637"/>
<path d="M106.708 196.975C104.81 196.975 102.911 197.004 101.017 196.975C95.7271 196.877 90.5557 195.945 85.4212 194.734C72.2827 191.688 59.9843 185.746 49.4182 177.339C33 164.303 22.5551 147.405 17.6988 127.013C16.576 122.25 16.0089 117.373 16.0091 112.479C16.0091 109.166 15.9886 105.849 16.0091 102.536C16.0295 97.5433 16.9664 92.6824 18.2266 87.8871C21.7655 74.425 27.8696 62.2973 36.899 51.6804C45.2042 41.9133 55.2728 34.4864 66.7447 28.9111C74.0035 25.3377 81.7102 22.7649 89.6557 21.2625C93.6755 20.5016 97.7532 20.0895 101.843 20.0308C105.34 19.9897 108.84 19.9897 112.342 20.0308C116.397 20.1345 120.431 20.6503 124.382 21.5704C131.133 23.0401 137.752 24.978 144.045 27.8601C162.214 36.1943 176.443 48.9379 186.299 66.4849C188.152 69.7694 189.433 73.333 190.832 76.8309C192.813 81.6512 194.388 86.6295 195.541 91.7135C196.27 94.9792 196.716 98.302 196.875 101.645C197.043 105.812 197.026 109.983 196.916 114.146C196.789 119.073 195.852 123.917 194.674 128.7C191.746 140.794 186.275 152.12 178.628 161.918C170.757 172.005 160.915 180.372 149.707 186.506C146.843 188.095 143.726 189.126 140.678 190.304C135.797 192.184 130.859 193.941 125.781 195.169C120.79 196.391 115.671 197.006 110.533 197H106.708V196.975Z" fill="#FDFDFD"/>
<path d="M103.287 128.143C103.449 127.86 103.504 127.529 103.44 127.21C103.44 122.795 103.39 118.375 103.468 113.96C103.528 111.728 102.975 109.523 101.869 107.58C101.37 106.621 100.821 105.688 100.224 104.786C99.8129 104.192 99.6854 104.147 98.9905 104.376C98.0529 104.679 97.1401 105.056 96.2025 105.35C91.5396 106.815 87.0246 106.66 82.7029 104.159C80.9329 103.154 79.2495 102.004 77.6699 100.722C76.5925 99.8594 75.6085 98.887 74.7339 97.821C74.2147 97.2484 73.8249 96.5716 73.5908 95.8363C76.6789 95.2471 79.3846 93.6144 82.4274 93.0374C87.0781 92.1494 91.4738 92.7714 95.4254 95.4926C96.9139 96.5074 98.3038 97.645 99.7758 98.7171C100.911 99.5355 100.919 99.5355 102.062 98.7171C102.222 98.6066 102.379 98.4839 102.531 98.357C103.571 97.469 103.641 97.0967 102.942 95.9468C101.619 93.8745 100.555 91.6499 99.7717 89.3218C99.3196 87.8848 99.0895 86.3878 99.0891 84.882C99.0891 83.8672 99.0563 82.836 99.1179 81.8416C99.2754 80.1088 99.8387 78.4369 100.763 76.9598C101.822 75.224 103.054 73.5982 104.439 72.1067C104.698 71.8121 104.949 71.5093 105.224 71.2269C105.417 71.0291 105.566 70.7932 105.662 70.5346C105.757 70.2759 105.797 70.0001 105.779 69.7251C105.757 65.112 105.757 60.499 105.779 55.8859C105.802 55.5953 105.746 55.304 105.617 55.0421C105.488 54.7802 105.292 54.5573 105.047 54.3964C103.712 53.443 102.316 52.5751 100.87 51.798C97.6829 50.0384 94.4755 48.3034 91.2887 46.5438C91.2163 46.482 91.1322 46.4353 91.0414 46.4063C90.9506 46.3773 90.8548 46.3667 90.7598 46.3751C90.6648 46.3835 90.5724 46.4107 90.4881 46.4551C90.4038 46.4996 90.3293 46.5603 90.269 46.6338C88.4638 48.3361 85.68 47.5873 84.3272 45.7336C84.2721 45.6518 84.224 45.5655 84.1833 45.4758C83.4143 43.8717 84.1092 41.4329 85.6142 40.4917C86.0501 40.1929 86.5652 40.0291 87.0945 40.0211C87.5057 40.0211 87.884 40.0211 88.2788 40.0211C89.8701 40.0539 90.8405 40.7372 91.4121 42.2349C91.6464 42.8125 91.7691 43.4289 91.7739 44.0518C91.7587 44.2785 91.8116 44.5045 91.9258 44.7013C92.04 44.898 92.2105 45.0565 92.4154 45.1566C96.6384 47.6118 100.866 50.067 105.241 52.2726C105.417 52.3627 105.607 52.4281 105.775 52.5304C106.089 52.7303 106.457 52.831 106.83 52.8193C107.203 52.8076 107.563 52.6841 107.864 52.465C112.157 50.0098 116.499 47.5545 120.813 45.1607C121.037 45.0708 121.227 44.912 121.354 44.7073C121.481 44.5027 121.539 44.263 121.52 44.0231C121.506 43.2001 121.704 42.3872 122.096 41.662C122.316 41.1809 122.669 40.7717 123.114 40.482C123.559 40.1923 124.077 40.034 124.608 40.0252C125.064 40.0048 125.525 40.0252 125.986 40.0048C126.55 39.9724 127.111 40.1061 127.6 40.3891C128.088 40.6722 128.482 41.0921 128.732 41.5966C129.485 42.9633 129.695 44.42 128.757 45.7745C128.329 46.445 127.707 46.9706 126.973 47.2818C126.239 47.5931 125.427 47.6753 124.645 47.5177C123.988 47.4094 123.393 47.0695 122.967 46.5602C122.696 46.241 122.466 46.2574 122.145 46.4374C117.799 48.7494 113.428 51.0164 109.283 53.6803L109.036 53.844C107.539 54.867 107.539 54.867 107.539 56.7084C107.539 61.0296 107.539 65.3467 107.539 69.6678C107.527 69.9585 107.574 70.2486 107.677 70.5207C107.78 70.7929 107.937 71.0414 108.14 71.2515C109.542 72.7241 110.813 74.315 111.939 76.0064C113.925 79.1245 114.497 82.5045 114.16 86.1464C113.818 89.862 112.317 93.0578 110.191 96.0368C109.418 97.1253 109.435 97.1376 110.43 97.9887C110.928 98.4184 111.441 98.8071 111.923 99.2695C111.973 99.3329 112.036 99.3849 112.108 99.4219C112.181 99.4588 112.26 99.48 112.341 99.4839C112.422 99.4877 112.503 99.4743 112.578 99.4444C112.654 99.4144 112.722 99.3688 112.778 99.3105C113.707 98.5821 114.653 97.8741 115.582 97.1458C116.853 96.1076 118.211 95.1794 119.641 94.3714C121.683 93.3016 123.946 92.7162 126.253 92.6609C128.844 92.5953 131.425 93.0217 133.856 93.9172C135.562 94.5146 137.24 95.1775 138.988 95.6522C139.526 95.7995 139.543 95.8732 139.296 96.4215C139.041 96.9539 138.708 97.4462 138.309 97.8823C136.492 99.9609 134.42 101.804 132.141 103.37C129.423 105.24 126.315 106.005 123.041 106.234C120.739 106.39 118.431 106.038 116.281 105.203C115.488 104.9 114.661 104.675 113.855 104.385C113.708 104.315 113.539 104.307 113.385 104.36C113.231 104.414 113.105 104.525 113.033 104.671C111.047 107.388 109.842 110.363 109.858 113.776C109.879 118.224 109.858 122.676 109.858 127.124C109.858 127.255 109.858 127.382 109.887 127.558C110.27 127.496 110.298 127.148 110.434 126.932C111.141 125.532 111.77 124.067 112.531 122.713C115.636 117.115 120.13 113.248 126.512 111.852C130.875 110.903 135.196 111.214 139.473 112.413C140.84 112.768 142.177 113.226 143.474 113.784C144.558 114.271 145.783 114.348 146.92 114.001C149.934 113.182 152.915 112.29 155.884 111.333C158.853 110.375 161.932 109.34 165.041 108.636C165.658 108.497 165.715 108.1 165.818 107.666C166.506 104.805 167.192 101.94 167.874 99.0731C168.351 97.0721 168.795 95.0629 169.313 93.0701C169.395 92.8591 169.405 92.6273 169.342 92.41C169.279 92.1928 169.146 92.0021 168.964 91.8671C168.89 91.8016 168.828 91.7198 168.75 91.6625C167.619 90.8113 167.27 89.6696 167.344 88.2947C167.383 87.3897 167.76 86.5318 168.403 85.8898C169.045 85.2477 169.905 84.8678 170.814 84.8247C171.38 84.7764 171.949 84.847 172.485 85.0317C173.022 85.2164 173.513 85.5113 173.927 85.8971C174.342 86.2829 174.67 86.7511 174.891 87.2713C175.112 87.7915 175.221 88.3521 175.21 88.9167C175.227 89.3421 175.14 89.7654 174.956 90.1497C174.772 90.534 174.496 90.8679 174.153 91.1223C173.545 91.5709 172.88 91.9369 172.175 92.2108C171.933 92.3081 171.717 92.46 171.543 92.6545C171.37 92.8491 171.244 93.081 171.176 93.332C170.671 94.8851 170.276 96.4711 169.992 98.0788C169.423 101.131 168.681 104.149 167.767 107.118C167.414 108.321 167.644 109.037 168.59 109.868C172.212 113.051 175.749 116.329 179.281 119.586C179.481 119.822 179.755 119.985 180.059 120.048C180.363 120.112 180.679 120.073 180.958 119.938C183.788 118.969 186.226 121.276 185.983 123.277C185.969 123.474 185.969 123.671 185.983 123.867C186.033 124.529 185.86 125.188 185.494 125.742C185.127 126.297 184.586 126.715 183.956 126.932C181.534 127.906 179.61 127.202 178.438 124.886C178.209 124.484 178.086 124.032 178.081 123.57C178.075 123.109 178.186 122.653 178.405 122.246C178.68 121.747 178.508 121.51 178.154 121.186C174.664 117.978 171.172 114.761 167.677 111.533C167.266 111.153 166.854 110.785 166.443 110.392C166.336 110.269 166.189 110.187 166.028 110.16C165.867 110.132 165.702 110.161 165.559 110.24C160.888 112.118 155.999 113.293 151.167 114.639C149.49 115.106 147.878 115.732 146.151 116.08C145.908 116.128 145.682 116.234 145.49 116.39C145.299 116.545 145.149 116.745 145.053 116.972C143.002 121.276 139.987 125.055 136.241 128.02C131.567 131.858 126.272 134.879 120.582 136.953C119.192 137.454 117.751 137.802 116.285 137.992C115.767 138.058 115.632 138.254 115.64 138.733C115.665 140.173 115.665 141.614 115.64 143.054C115.64 143.574 115.829 143.762 116.331 143.713C116.557 143.713 116.791 143.713 117.021 143.713H144.736C144.966 143.713 145.197 143.713 145.427 143.713C146.167 143.713 146.179 143.713 146.179 144.482C146.179 150.075 146.179 155.667 146.179 161.26C146.179 161.968 146.179 161.972 145.485 161.992C145.287 161.992 145.073 161.992 144.892 161.992C119.31 161.992 93.7312 161.992 68.1548 161.992C66.6745 161.992 66.8677 162.184 66.8677 160.674C66.8677 155.439 66.8677 150.204 66.8677 144.969C66.8677 144.707 66.8677 144.445 66.8677 144.184C66.8677 143.922 66.9746 143.688 67.3201 143.705C67.5832 143.705 67.8464 143.705 68.1095 143.705H96.3218C96.5505 143.693 96.7798 143.693 97.0085 143.705C97.5554 143.766 97.6705 143.496 97.6664 143.013C97.6458 141.573 97.6664 140.149 97.6664 138.692C97.6664 138.283 97.5883 138.058 97.0948 137.996C93.0199 137.481 89.3191 135.897 85.7746 133.904C81.8037 131.648 78.1002 128.955 74.7339 125.876C72.2476 123.578 70.1558 120.891 68.5413 117.921C68.2513 117.331 67.8377 116.811 67.3285 116.393C66.8192 115.976 66.226 115.672 65.5889 115.503C60.2434 114.197 55.1198 112.262 49.8277 110.834C49.1287 110.645 48.4173 110.51 47.7306 110.298C47.551 110.224 47.3531 110.207 47.1634 110.248C46.9737 110.29 46.8014 110.389 46.6697 110.531C42.8401 113.984 39.0064 117.427 35.1686 120.859C35.0024 120.99 34.8759 121.164 34.8033 121.362C34.7307 121.56 34.7148 121.774 34.7574 121.98C34.8464 122.497 34.8986 123.019 34.9136 123.543C34.9418 124.504 34.5917 125.437 33.9379 126.145C33.2842 126.852 32.3785 127.277 31.4143 127.329C30.8156 127.404 30.2075 127.341 29.6374 127.144C29.0672 126.947 28.5504 126.622 28.1271 126.194C27.7037 125.766 27.3854 125.247 27.1967 124.676C27.008 124.106 26.9541 123.5 27.0392 122.905C27.0668 122.527 27.1754 122.16 27.3577 121.827C27.54 121.495 27.7917 121.205 28.096 120.978C29.4981 119.938 31.0072 119.308 32.7589 120.106C33.1948 120.303 33.4456 120.073 33.717 119.836C34.7039 118.977 35.6949 118.113 36.6653 117.229C39.4066 114.739 42.0959 112.189 44.733 109.581C45.0881 109.272 45.3465 108.868 45.4777 108.417C45.6089 107.966 45.6073 107.486 45.4732 107.036C45.1442 105.637 44.8194 104.237 44.4123 102.858C43.6281 100.26 43.029 97.61 42.6194 94.9279C42.554 94.5417 42.4578 94.1613 42.3316 93.7903C42.2501 93.4031 42.0595 93.047 41.7821 92.7636C41.5046 92.4803 41.1518 92.2814 40.7649 92.1903C40.6076 92.1442 40.4549 92.084 40.3085 92.0103C38.6637 91.2901 37.9935 90.2753 38.0798 88.6835C38.0953 87.8791 38.3533 87.0979 38.8204 86.4412C39.2874 85.7845 39.942 85.2826 40.6992 85.0007C42.8045 84.2968 45.4156 85.5572 45.8268 87.5786C46.238 89.6737 45.7199 90.885 44.182 91.7975C44.0873 91.8363 44.0013 91.8936 43.9292 91.966C43.857 92.0383 43.8001 92.1243 43.7618 92.2188C43.7235 92.3134 43.7046 92.4146 43.7061 92.5165C43.7077 92.6184 43.7297 92.719 43.7708 92.8123C45.0044 97.7964 46.1804 102.789 47.377 107.777C47.3957 107.969 47.4737 108.151 47.6003 108.298C47.7269 108.444 47.896 108.548 48.0843 108.595C53.0803 109.987 57.953 111.762 62.9449 113.191C64.2073 113.551 65.4738 113.886 66.7567 114.177C67.6843 114.396 68.6574 114.321 69.5405 113.964C71.3786 113.264 73.192 112.466 75.1246 112.049C78.9117 111.231 82.7523 110.862 86.56 111.767C91.4943 112.941 95.631 115.478 98.6821 119.623C100.192 121.689 101.436 123.935 102.383 126.31C102.623 126.949 102.926 127.563 103.287 128.143Z" fill="#04B1F0"/>
<path d="M173.999 121.978C173.851 122.741 173.727 123.509 173.555 124.264C172.943 126.882 172.323 129.497 171.522 132.083C171.422 132.391 171.298 132.692 171.21 133.004C171.153 133.222 171.039 133.421 170.88 133.579C170.721 133.737 170.522 133.848 170.306 133.901C166.841 135.046 163.347 136.073 159.802 136.942C159.56 137.015 159.303 137.019 159.06 136.953C158.816 136.887 158.595 136.754 158.422 136.569C157.149 135.387 155.857 134.222 154.584 133.037C153.196 131.742 151.831 130.418 150.439 129.127C150.263 128.99 150.131 128.803 150.059 128.59C149.988 128.377 149.981 128.147 150.039 127.93C150.747 124.276 151.759 120.687 152.659 117.074C152.8 116.518 153.188 116.404 153.62 116.262L162.271 113.7C162.943 113.502 163.635 113.343 164.272 113.091C164.475 112.998 164.702 112.975 164.919 113.027C165.137 113.078 165.331 113.201 165.472 113.376C166.785 114.614 168.133 115.811 169.442 117.054C170.75 118.296 172.035 119.563 173.307 120.841C173.635 121.122 174.019 121.438 173.999 121.978Z" fill="#848688"/>
<path d="M71.9796 102.086C72.0963 102.628 71.6921 103.032 71.2713 103.404C69.8657 104.643 68.456 105.877 67.042 107.105C65.6962 108.261 64.3086 109.376 63.0586 110.632C62.9311 110.795 62.7518 110.913 62.5484 110.967C62.345 111.021 62.1289 111.008 61.9336 110.931C58.1446 109.822 54.3487 108.736 50.5459 107.675C50.3527 107.637 50.1755 107.544 50.0373 107.408C49.8991 107.272 49.8063 107.099 49.7709 106.911C48.8708 103.274 47.9708 99.6379 47.0375 96.0013C46.9821 95.8189 46.9882 95.6242 47.0549 95.4454C47.1216 95.2666 47.2454 95.1131 47.4083 95.0073C49.8584 92.8658 52.3042 90.7202 54.746 88.5706C55.1626 88.2029 55.6126 87.8595 55.996 87.4554C56.1756 87.2444 56.4214 87.0961 56.6961 87.0334C56.9707 86.9706 57.259 86.9968 57.5168 87.1079C59.7044 87.7787 61.9086 88.405 64.1045 89.0474C65.6337 89.4959 67.1629 89.9404 68.6879 90.397C68.9921 90.4859 69.3212 90.5222 69.3629 90.9748C69.5921 93.5042 70.5004 95.876 71.1754 98.3004C71.5866 99.5298 71.8563 100.8 71.9796 102.086Z" fill="#7A75B5"/>
<path d="M49.131 113C49.3151 113.049 49.5787 113.102 49.834 113.175C53.3487 114.212 56.855 115.266 60.3823 116.275C60.6384 116.331 60.8712 116.461 61.0503 116.647C61.2295 116.834 61.3466 117.068 61.3865 117.32C62.2903 120.882 63.1523 124.452 63.9724 128.032C64.0218 128.253 64.0047 128.484 63.9231 128.696C63.8414 128.908 63.6988 129.093 63.5121 129.228C61.6627 130.969 59.7658 132.662 57.8216 134.305C56.9178 135.074 55.9722 135.803 55.0559 136.559C54.834 136.757 54.5628 136.895 54.2692 136.959C53.9756 137.023 53.6697 137.012 53.3822 136.925C51.4575 136.49 49.6164 135.811 47.7419 135.221C45.9855 134.595 44.1824 134.102 42.3485 133.744C41.8631 133.671 41.792 133.386 41.7041 133.02C41.1853 130.872 40.6497 128.724 40.1225 126.58C39.7752 125.156 39.4739 123.732 39.0681 122.32C38.9868 122.095 38.9781 121.851 39.0431 121.62C39.1082 121.39 39.2438 121.184 39.4321 121.031C41.1853 119.285 43.0221 117.626 44.8966 116.002C45.9218 115.115 46.9469 114.237 48.0557 113.447C48.352 113.185 48.7309 113.027 49.131 113Z" fill="#7A75B5"/>
<path d="M131.996 62.0381C131.996 63.6824 131.97 65.3266 131.996 66.9708C132.016 67.2214 131.964 67.4725 131.845 67.6977C131.727 67.9229 131.546 68.1139 131.321 68.2505C130.423 68.8686 129.479 69.4154 128.521 69.9463C126.059 71.3092 123.525 72.5572 121.008 73.833C120.818 73.946 120.596 74.004 120.372 73.9998C120.147 73.9956 119.928 73.9293 119.743 73.8092C117.082 72.3868 114.346 71.0873 111.732 69.5897C111.004 69.1848 110.3 68.7431 109.623 68.2664C109.419 68.1292 109.256 67.9457 109.147 67.7331C109.039 67.5204 108.99 67.2854 109.004 67.05C109.023 63.6982 109.023 60.3437 109.004 56.9866C108.985 56.7529 109.035 56.519 109.147 56.3097C109.259 56.1003 109.43 55.9235 109.64 55.798C109.944 55.6039 110.231 55.3781 110.538 55.1879C113.467 53.3881 116.499 51.7414 119.621 50.2552C119.9 50.0885 120.224 50 120.555 50C120.885 50 121.209 50.0885 121.488 50.2552C124.558 51.8995 127.657 53.5001 130.609 55.3266C131.996 56.1863 131.987 56.1982 131.987 57.7592L131.996 62.0381Z" fill="#393637"/>
<path d="M178.67 116.997C178.326 117.029 178.116 116.809 177.881 116.626C176.202 115.293 174.573 113.871 172.987 112.424C171.79 111.331 170.565 110.267 169.469 109.073C169.273 108.882 169.131 108.644 169.057 108.383C168.984 108.122 168.981 107.848 169.049 107.586C169.686 104.26 170.527 100.974 171.568 97.7463C171.68 97.292 171.915 96.8753 172.25 96.5397C172.584 96.2041 173.005 95.962 173.469 95.8388C176.886 94.7791 180.337 93.8579 183.821 93.0509C183.992 92.9948 184.176 92.9848 184.353 93.0222C184.529 93.0595 184.692 93.1427 184.824 93.2629C187.779 95.8144 190.74 98.3618 193.706 100.905C193.831 101.009 193.921 101.145 193.967 101.298C194.012 101.451 194.011 101.613 193.963 101.765C193.702 103.396 193.295 104.948 192.913 106.53C192.422 108.568 191.876 110.634 191.297 112.672C191.244 112.924 191.12 113.157 190.938 113.344C190.757 113.532 190.525 113.666 190.269 113.732C186.605 114.879 182.914 115.941 179.195 116.919C179.022 116.955 178.847 116.981 178.67 116.997Z" fill="#848688"/>
<path d="M117.997 38.1897C117.997 40.0277 117.997 41.8657 117.997 43.7078C118.014 43.9679 117.964 44.2281 117.853 44.4626C117.741 44.697 117.571 44.8976 117.359 45.0442C116.536 45.6753 115.67 46.2482 114.77 46.7588C112.386 48.1281 109.986 49.4727 107.611 50.846C107.469 50.9463 107.3 51 107.127 51C106.954 51 106.785 50.9463 106.643 50.846C103.317 48.9272 99.9797 47.0083 96.6321 45.0894C96.4589 45.0099 96.3139 44.8782 96.2165 44.712C96.1191 44.5459 96.0741 44.3532 96.0876 44.1601C96.0876 40.5115 96.0593 36.867 96.0029 33.2267C95.9882 33.0154 96.03 32.8041 96.1237 32.6151C96.2175 32.4262 96.3597 32.2666 96.5353 32.1535C97.1483 31.7423 97.7452 31.2858 98.3744 30.8829C100.903 29.2381 103.521 27.7661 106.131 26.2694C106.385 26.0994 106.681 26.0061 106.985 26.0003C107.289 25.9945 107.588 26.0763 107.849 26.2365C108.724 26.7258 109.603 27.2028 110.47 27.7044C112.846 29.0778 115.089 30.7061 117.642 31.7505C118.045 31.9232 117.98 32.2563 117.984 32.5729C118.001 34.4438 117.997 36.3188 117.997 38.1897Z" fill="#393637"/>
<path d="M43.9911 107.972C44.0628 108.536 43.6875 108.903 43.3459 109.251C42.4604 110.145 41.5664 111.04 40.6303 111.881C38.855 113.482 37.0545 115.055 35.1485 116.509C34.8725 116.743 34.5367 116.901 34.1762 116.966C33.8158 117.031 33.4438 117.002 33.0991 116.881C29.6708 115.929 26.2679 114.896 22.8649 113.866C22.5396 113.802 22.2413 113.645 22.0072 113.417C21.7732 113.189 21.6139 112.899 21.5493 112.584C20.6469 109.075 19.736 105.566 19.0403 102.013C18.9833 101.813 18.9868 101.601 19.0504 101.402C19.1139 101.204 19.2348 101.027 19.3987 100.894C22.1523 98.2958 25.0155 95.8165 27.904 93.3616C28.0837 93.1959 28.3069 93.0812 28.5494 93.03C28.7918 92.9789 29.0441 92.9933 29.2787 93.0716C32.9009 93.9621 36.4725 95.02 40.0484 96.0656C40.8159 96.2903 41.0899 96.8294 41.3134 97.4503C42.0548 99.5122 42.6673 101.615 43.1478 103.749C43.4176 104.892 43.6327 106.048 43.8688 107.196C43.9236 107.453 43.9489 107.703 43.9911 107.972Z" fill="#7A75B5"/>
<path d="M103.968 62.0342C103.968 63.6783 103.944 65.3223 103.968 66.9624C103.997 67.2284 103.948 67.4969 103.827 67.7368C103.707 67.9767 103.519 68.1782 103.286 68.318C102.722 68.6855 102.177 69.0807 101.6 69.4245C98.9296 71.0251 96.1541 72.4281 93.3827 73.8468C93.2575 73.9405 93.1056 73.9938 92.9482 73.9995C92.7907 74.0052 92.6353 73.9629 92.5033 73.8785C90.2362 72.4834 87.8117 71.365 85.4881 70.0687C84.5279 69.5498 83.5973 68.9798 82.7006 68.3614C82.4729 68.2167 82.2886 68.0153 82.1666 67.7778C82.0447 67.5402 81.9895 67.2752 82.0067 67.0098C82.0336 63.6901 82.0336 60.3717 82.0067 57.0547C81.9812 56.8052 82.0287 56.5538 82.1438 56.3298C82.2588 56.1059 82.4365 55.9186 82.6562 55.79C83.225 55.4343 83.7696 55.0391 84.3424 54.6835C86.8758 53.1026 89.4899 51.6799 92.108 50.2453C92.3325 50.0969 92.5947 50.0124 92.8653 50.0013C93.1359 49.9901 93.4044 50.0527 93.6409 50.1821C96.8653 51.7813 99.9928 53.5613 103.008 55.5134C103.341 55.6981 103.611 55.9744 103.785 56.3081C103.96 56.6417 104.03 57.0181 103.988 57.3906C103.908 58.9358 103.968 60.485 103.968 62.0342Z" fill="#393637"/>
<path d="M165.977 95.7355C165.768 96.6188 165.559 97.498 165.35 98.3812C164.74 100.93 164.133 103.478 163.414 105.998C163.302 106.517 163.037 106.994 162.65 107.369C162.263 107.744 161.771 108.001 161.235 108.109C158.563 108.806 155.903 109.543 153.239 110.273C152.531 110.451 151.833 110.664 151.148 110.913C150.987 110.993 150.802 111.019 150.624 110.986C150.446 110.953 150.284 110.863 150.165 110.731C149.287 109.92 148.388 109.163 147.501 108.377C145.481 106.586 143.474 104.779 141.441 103C141.244 102.864 141.101 102.665 141.037 102.439C140.973 102.212 140.992 101.971 141.09 101.756C141.876 99.2847 142.274 96.72 142.88 94.204C143.102 93.2924 143.357 92.3888 143.57 91.4732C143.63 91.1407 143.793 90.8338 144.038 90.5929C144.282 90.352 144.596 90.1885 144.938 90.124C147.986 89.3137 151.022 88.4183 154.063 87.5512C154.516 87.4456 154.962 87.3102 155.397 87.1461C155.642 87.0148 155.927 86.9701 156.202 87.0197C156.477 87.0692 156.726 87.2098 156.907 87.4175C159.746 89.9255 162.619 92.3929 165.484 94.8684C165.756 95.0872 166.09 95.2939 165.977 95.7355Z" fill="#848688"/>
<path d="M62.0243 153.48V143.218C62.0345 143.029 62.0345 142.84 62.0243 142.652C61.9716 142.157 62.2069 141.996 62.7018 142C64.1581 142 65.6184 142 67.0788 142C67.5291 142 67.9834 142 68.4377 142C68.8069 142 68.9286 142.169 68.957 142.515C69.0705 143.866 69.0543 143.893 67.6791 143.893C66.7745 143.893 65.8659 143.893 64.9572 143.893C64.5069 143.893 64.3082 144.042 64.3284 144.498C64.3568 145.06 64.3284 145.625 64.3284 146.191V162.007C64.3284 163.185 64.1905 163.087 65.5008 163.095C66.4054 163.095 67.3141 163.095 68.2227 163.095C68.9164 163.095 68.9164 163.095 68.9407 163.779C68.9407 163.904 68.9407 164.035 68.9407 164.171C68.9407 164.988 68.9407 164.996 68.0848 165C66.3324 165 64.584 165 62.8113 165C62 165 62 165 62 164.214C62.0135 160.635 62.0216 157.057 62.0243 153.48Z" fill="#05B1F0"/>
<path d="M150.979 153.041V163.848C150.979 164.078 150.979 164.307 150.979 164.537C150.979 164.873 150.816 165.004 150.482 165C150.148 164.996 149.796 165 149.454 165C147.916 165 146.373 165 144.836 165C144.03 165 144.013 165 144.013 164.258C144.013 162.848 143.889 163.028 145.243 163.028C146.202 163.028 147.162 163.028 148.117 163.028C148.858 163.028 148.867 163.008 148.88 162.323C148.88 161.503 148.88 160.683 148.88 159.863V144.334C148.88 144.137 148.88 143.924 148.88 143.744C148.858 143.01 148.858 142.998 148.053 142.989C146.926 142.989 145.795 142.989 144.664 142.989C144.193 142.989 143.992 142.854 144 142.37C144.026 140.731 143.897 141.026 145.315 141.013C146.926 141.013 148.533 141.013 150.143 141.013C150.966 141.013 151 141.013 151 141.833C150.986 145.569 150.979 149.305 150.979 153.041Z" fill="#04B1F0"/>
<path d="M90.9996 185.571C91.007 185.98 90.92 186.385 90.7447 186.758C90.286 188.042 89.7083 189.294 89.5469 190.659C89.5214 190.882 89.4237 191.028 89.1646 190.996C88.6251 190.927 88.09 190.854 87.5505 190.773C87.4831 190.77 87.4173 190.752 87.3587 190.72C87.3 190.688 87.2501 190.644 87.2132 190.59C87.1762 190.536 87.1533 190.474 87.1462 190.41C87.1391 190.346 87.1481 190.282 87.1725 190.222C87.3636 189.464 87.6185 188.727 87.8776 187.994C88.2491 187.122 88.4838 186.204 88.5742 185.267C88.5742 184.939 88.6167 184.59 88.2046 184.457C88.0178 184.374 87.8074 184.353 87.6066 184.397C87.4058 184.441 87.2261 184.548 87.096 184.7C86.8406 185.003 86.6383 185.344 86.4971 185.709C86.0609 186.831 85.7228 187.985 85.4862 189.16C85.3035 189.93 85.278 189.942 84.4668 189.825L83.562 189.687C82.9206 189.594 82.8951 189.578 83.0396 188.937C83.3204 187.937 83.6608 186.952 84.059 185.988C84.3154 185.388 84.4398 184.744 84.4243 184.096C84.3946 183.724 84.3223 183.379 83.8593 183.286C83.659 183.239 83.4477 183.264 83.2648 183.355C83.0819 183.446 82.9399 183.597 82.8654 183.78C82.5919 184.296 82.381 184.84 82.2368 185.401C81.9607 186.369 81.7058 187.341 81.4127 188.305C81.2301 188.909 81.0644 189.027 80.4655 188.877C78.7665 188.447 78.9024 188.731 79.1403 187.163C79.3305 185.814 79.7721 184.507 80.4443 183.306C80.7406 182.757 81.1376 182.263 81.6166 181.848C82.6615 180.989 83.8084 180.718 85.0911 181.337C85.4013 181.472 85.7009 181.627 85.9874 181.803C86.3223 182.025 86.7226 182.138 87.13 182.127C87.4685 182.138 87.8054 182.178 88.1367 182.245C90.1203 182.597 91.0165 183.626 90.9996 185.571Z" fill="#04B1F0"/>
<path d="M92.0047 189.25C92.0275 187.929 92.272 186.62 92.7286 185.375C93.1745 184.274 93.8371 183.374 95.1255 183.078C95.9614 182.901 96.8358 183.029 97.5797 183.437C97.998 183.666 98.4915 183.731 98.9581 183.619C99.547 183.465 100.169 183.475 100.752 183.648C101.335 183.82 101.856 184.148 102.255 184.593C102.554 184.929 102.772 185.325 102.892 185.753C103.013 186.18 103.032 186.628 102.95 187.064C102.762 188.501 102.541 189.937 102.373 191.378C102.316 191.871 102.075 192.037 101.604 191.993C101.375 191.97 101.146 191.954 100.925 191.91C100.107 191.764 100.107 191.761 100.202 190.936C100.353 189.716 100.504 188.497 100.664 187.277C100.703 187.029 100.703 186.776 100.664 186.527C100.658 186.394 100.62 186.264 100.552 186.148C100.485 186.032 100.39 185.933 100.275 185.859C100.16 185.785 100.028 185.738 99.8913 185.723C99.7542 185.707 99.6152 185.723 99.4857 185.769C99.1462 185.852 99.1422 186.125 99.1013 186.361C98.8845 187.601 98.6922 188.848 98.4713 190.091C98.1768 191.761 98.4182 191.401 96.8025 191.445C96.0745 191.445 96.0499 191.445 96.1317 190.655C96.2708 189.341 96.4467 188.027 96.6062 186.709C96.6348 186.488 96.6594 186.271 96.6921 186.05C96.7147 185.967 96.7198 185.88 96.7073 185.795C96.6947 185.71 96.6647 185.629 96.6189 185.555C96.5732 185.482 96.5127 185.418 96.441 185.367C96.3692 185.316 96.2877 185.28 96.2013 185.26C96.0191 185.184 95.8155 185.168 95.6233 185.217C95.431 185.266 95.2614 185.376 95.1419 185.529C94.9382 185.816 94.7925 186.137 94.7124 186.476C94.4354 187.612 94.3063 188.778 94.3279 189.945C94.3279 190.951 94.4015 190.908 93.289 190.892C91.8165 190.888 92.0128 191.145 92.0047 189.25Z" fill="#04B1F0"/>
<path d="M78.9916 182.256C79.0163 182.882 78.9116 183.505 78.6839 184.089C78.4562 184.672 78.1105 185.202 77.6682 185.647C77.2259 186.092 76.6964 186.441 76.1128 186.674C75.5291 186.906 74.9036 187.016 74.2753 186.998C71.8323 186.998 69.9915 185.009 70 182.353C70 179.938 71.7729 178.013 73.9826 178C76.345 178 79.174 179.364 78.9916 182.256Z" fill="#04B1F0"/>
<path d="M159.445 173.667C159.627 173.925 159.739 174.127 159.367 174.404C158.205 175.224 158.205 175.239 157.276 174.19C155.901 172.64 154.518 171.091 153.143 169.545C153.089 169.466 153.041 169.383 153 169.298C154.007 168.562 154.975 167.756 156.122 167.211C156.478 167.065 156.864 166.993 157.252 167.001C157.64 167.008 158.022 167.095 158.372 167.255C158.588 167.346 158.774 167.491 158.91 167.674C159.047 167.858 159.128 168.073 159.147 168.297C159.149 168.459 159.217 168.614 159.338 168.729C159.459 168.844 159.622 168.91 159.793 168.912C160.156 168.987 160.503 169.119 160.82 169.302C162.369 170.001 162.303 172.246 161.145 172.935C160.707 173.204 160.37 173.756 159.704 173.446C159.178 173.358 159.019 172.935 158.817 172.552C158.755 172.228 159.007 172.007 159.127 171.742C159.196 171.643 159.232 171.527 159.232 171.409C159.232 171.291 159.196 171.175 159.127 171.076C158.937 170.84 158.682 170.918 158.449 171.006C158.089 171.142 157.741 171.249 157.435 170.903C157.28 170.708 157.02 170.586 156.966 170.318C156.981 170.146 157.045 169.982 157.152 169.843C157.253 169.666 157.373 169.475 157.191 169.294C157.071 169.169 156.912 169.213 156.776 169.294C156.721 169.317 156.673 169.352 156.634 169.396C156.596 169.441 156.569 169.493 156.555 169.548C156.542 169.604 156.542 169.662 156.556 169.718C156.57 169.773 156.598 169.825 156.637 169.869C156.703 169.964 156.772 170.056 156.83 170.156C156.928 170.419 157.099 170.652 157.326 170.829C157.9 171.397 158.406 172.024 158.833 172.699C159.019 173.016 159.356 173.273 159.445 173.667Z" fill="#04B1F0"/>
<path d="M105.011 186.489C105.011 185.657 105.011 184.825 105.011 183.993C105.011 183.578 105.126 183.39 105.513 183.399C107.481 183.424 107.068 183.166 107.105 185.062C107.127 186.193 107.105 187.32 107.105 188.451C107.079 188.702 107.133 188.954 107.256 189.164C107.378 189.375 107.563 189.53 107.777 189.603C108.452 189.857 108.884 189.541 108.906 188.738C108.929 187.378 108.906 186.015 108.906 184.655C108.906 184.289 108.906 183.923 108.906 183.557C108.906 183.191 109.028 183.112 109.327 183.074C110.974 182.891 111 182.912 111 184.738C111 185.865 111 186.996 111 188.123C110.998 188.488 110.972 188.852 110.922 189.212C110.753 190.46 110.247 191.454 109.128 191.807C107.862 192.223 106.662 191.994 105.716 190.843C105.258 190.311 105.001 189.6 105 188.859C105 188.06 105 187.266 105 186.468L105.011 186.489Z" fill="#05B1F0"/>
<path d="M119.807 191.3C119.648 191.29 119.489 191.29 119.33 191.3C118.878 191.358 118.723 191.14 118.675 190.695C118.528 189.39 118.341 188.089 118.171 186.784C118.162 186.588 118.14 186.392 118.103 186.2C118 185.833 118.131 185.31 117.464 185.331C116.721 185.36 116.431 185.504 116.32 186.212C116.137 187.332 116.407 188.435 116.514 189.547C116.57 190.102 116.673 190.65 116.741 191.193C116.812 191.815 116.8 191.819 116.161 191.91H115.97C114.496 192.107 114.504 192.103 114.381 190.6C114.27 189.258 114.147 187.916 114.02 186.574C113.861 184.928 114.667 183.693 116.276 183.182C116.94 182.931 117.67 182.94 118.329 183.208C118.987 183.475 119.528 183.983 119.851 184.635C120.343 185.56 120.652 186.578 120.76 187.628C120.887 188.571 120.947 189.522 120.991 190.477C121.027 191.247 120.991 191.247 120.284 191.267L119.807 191.3Z" fill="#05B1F0"/>
<path d="M151.285 176.675L152.913 179.009C152.86 179.069 152.834 179.137 152.777 179.165C152.101 179.492 151.4 180.108 150.711 179.984C150.023 179.86 149.829 178.985 149.427 178.433C148.381 176.995 147.37 175.54 146.338 174.089C145.852 173.398 145.857 173.37 146.572 172.859C147.447 172.213 148.413 171.675 149.445 171.26C150.171 170.953 151.002 170.916 151.758 171.159C152.515 171.401 153.135 171.902 153.487 172.555C153.811 173.124 153.986 173.753 153.999 174.393C154.039 175.26 152.794 176.547 151.872 176.627C151.762 176.627 151.638 176.499 151.523 176.431C150.932 176.119 150.694 175.568 150.38 175.068C150.41 174.812 150.546 174.575 150.76 174.405C150.95 174.185 151.272 173.934 150.927 173.674C150.583 173.414 150.089 173.598 149.727 173.754C149.286 173.946 149.696 174.185 149.811 174.373C149.983 174.649 150.182 174.917 150.354 175.192C150.772 175.624 151.089 176.129 151.285 176.675Z" fill="#04B1F0"/>
<path d="M138.657 178C139.058 178.969 139.425 179.846 139.782 180.722C139.985 181.141 140.048 181.605 139.964 182.057C139.88 182.509 139.652 182.927 139.31 183.261C139.08 183.456 138.933 183.721 138.895 184.007C138.857 184.293 138.93 184.582 139.102 184.822C139.31 185.195 139.42 185.613 139.606 185.995C139.756 186.307 139.659 186.437 139.327 186.579C137.65 187.297 137.341 187.191 136.785 185.524C136.752 185.306 136.635 185.106 136.455 184.961C136.275 184.816 136.044 184.735 135.805 184.733C135.184 184.678 134.593 184.465 134.098 184.116C133.603 183.767 133.225 183.298 133.006 182.762C132.684 182.08 132.393 181.383 132.062 180.701C131.925 180.421 132.022 180.296 132.296 180.178C132.821 179.987 133.346 179.805 133.871 179.61C134.225 179.48 134.392 179.61 134.454 179.927C134.584 180.665 134.885 181.369 135.337 181.991C135.454 182.194 135.643 182.355 135.872 182.445C136.102 182.536 136.359 182.552 136.599 182.49C136.75 182.475 136.895 182.427 137.021 182.35C137.147 182.273 137.252 182.17 137.326 182.049C137.399 181.927 137.441 181.791 137.446 181.652C137.451 181.513 137.419 181.375 137.354 181.249C137.107 180.612 136.785 179.996 136.52 179.363C136.255 178.73 136.255 178.665 136.961 178.458C137.482 178.296 138.025 178.166 138.657 178Z" fill="#05B1F0"/>
<path d="M64.0384 178.618C63.5879 175.777 67.1993 172.918 69.8979 174.408C70.1561 174.536 70.3958 174.705 70.6091 174.91C71.0991 175.428 71.1228 175.755 70.7119 176.352C70.5775 176.544 70.4195 176.713 70.2733 176.896C70.0599 177.167 69.8308 177.284 69.5502 177.01C69.5017 176.964 69.4487 176.925 69.3922 176.892C67.9619 175.951 66.5592 176.561 66.0772 178.343C65.8282 179.267 66.2233 180.086 67.1716 180.592C68.0053 181.027 68.0251 181.097 67.6339 182.012C67.1677 183.101 66.7054 183.271 65.769 182.613C64.6784 181.851 64.1885 180.67 64.0423 179.302C64.0272 179.074 64.0259 178.846 64.0384 178.618Z" fill="#05B1F0"/>
<path d="M131.975 188.656C130.081 189.235 130.013 189.22 129.399 187.521C129.044 186.522 128.757 185.5 128.442 184.494C128.24 183.847 128.232 183.843 127.509 183.93L127.319 183.96C126.98 183.994 126.512 184.259 126.334 183.96C126.084 183.571 125.969 183.119 126.007 182.666C126.019 182.56 126.064 182.461 126.135 182.379C126.207 182.297 126.303 182.236 126.411 182.204C127.966 181.615 129.594 181.213 131.256 181.008C131.575 180.963 131.737 181.107 131.789 181.387C131.842 181.667 131.902 182.041 131.979 182.367C132.056 182.692 131.919 182.821 131.608 182.87C131.482 182.896 131.358 182.929 131.236 182.969C130.59 183.143 130.582 183.146 130.739 183.775C130.994 184.8 131.268 185.822 131.547 186.848C131.672 187.434 131.834 188.043 131.975 188.656Z" fill="#05B1F0"/>
<path d="M55 176.051C56.0199 174.572 56.9776 173.184 57.9312 171.793C58.5572 170.879 58.5116 171.087 57.8732 170.306C57.7446 170.152 57.6286 169.99 57.4959 169.84C57.4531 169.801 57.419 169.754 57.3956 169.701C57.3722 169.648 57.3601 169.591 57.3601 169.533C57.3601 169.475 57.3722 169.418 57.3956 169.365C57.419 169.312 57.4531 169.264 57.4959 169.225C57.8068 168.843 58.0929 168.449 58.437 168C59.8674 168.972 61.2853 169.94 62.7074 170.908C62.8211 170.977 62.9092 171.081 62.9579 171.205C63.0066 171.329 63.0132 171.465 62.9769 171.593C62.9128 171.922 62.7705 172.229 62.5623 172.491C62.1145 173.068 61.7331 173.114 61.1402 172.682C60.9385 172.478 60.6845 172.334 60.4063 172.266L57.529 176.142C57.3881 176.329 57.243 176.512 57.1144 176.703C57.0864 176.773 57.0422 176.835 56.9855 176.884C56.9287 176.934 56.8611 176.969 56.7882 176.986C56.7152 177.004 56.6391 177.005 56.566 176.987C56.493 176.97 56.4252 176.935 56.3682 176.886C55.9785 176.595 55.539 176.362 55 176.051Z" fill="#05B1F0"/>
<path d="M122.01 182.398C124.254 181.716 124.249 181.716 124.701 183.976C125.122 186.006 125.544 188.036 125.965 190.061C126.062 190.496 125.965 190.713 125.544 190.805C125.413 190.835 125.278 190.865 125.147 190.887C123.773 191.131 123.714 191.083 123.423 189.692C123.001 187.597 122.542 185.502 122.107 183.407C122.014 183.08 121.981 182.738 122.01 182.398Z" fill="#05B1F0"/>
<path d="M50 171.874L52.4986 169.104C53.352 168.154 54.2169 167.213 55.0549 166.251C55.3125 165.954 55.5162 165.915 55.8237 166.164C56.2081 166.477 56.5925 166.754 57 167.05C56.9385 167.375 56.6963 167.537 56.5195 167.743C55.0895 169.393 53.648 171.027 52.2295 172.685C51.9335 173.033 51.7029 173.12 51.33 172.807C50.9572 172.495 50.5228 172.238 50 171.874Z" fill="#05B1F0"/>
<path d="M149 181.172C148.138 181.533 147.366 182.102 146.619 181.984C145.872 181.866 145.757 180.976 145.393 180.42C144.312 178.758 143.276 177.076 142.235 175.393C141.876 174.821 141.881 174.788 142.579 174.532C144.641 173.784 144.113 173.683 145.099 175.162C146.405 177.129 147.67 179.116 149 181.172Z" fill="#05B1F0"/>
<path d="M150.203 175C150.532 175.502 150.801 176.078 151 176.705L150.804 177C150.471 176.503 150.199 175.928 150 175.3C150.006 175.225 150.029 175.154 150.065 175.1C150.102 175.046 150.15 175.011 150.203 175Z" fill="#D9F2FB"/>
<path d="M97.9849 133C97.1281 132.88 96.2831 132.669 95.4611 132.37C93.2642 131.637 91.1203 130.713 89.0487 129.605C85.4859 127.669 83.2761 124.411 82.1014 120.187C81.9036 119.486 81.9579 119.411 82.6015 119.332C83.4621 119.226 84.3267 119.16 85.1874 119.05C86.7706 118.855 88.3674 119.237 89.7466 120.143C93.2689 122.306 96.0127 125.806 97.5003 130.033C97.8866 130.957 98.0536 131.98 97.9849 133Z" fill="#FDFDFD"/>
<path d="M114.002 133C113.977 132.103 114.159 131.212 114.533 130.399C116.152 126.217 119.105 122.708 122.919 120.435C124.877 119.237 127.183 118.768 129.443 119.108C130.131 119.205 130.822 119.28 131.514 119.36C131.905 119.404 132.044 119.616 131.988 120.006C131.906 120.638 131.729 121.255 131.462 121.832C129.87 125.238 127.656 128.024 124.202 129.701C120.935 131.186 117.513 132.292 114.002 133Z" fill="#FDFDFD"/>
<path d="M73 154.66C73 153.57 73 152.481 73 151.391C73.0296 150.712 73.2046 150.048 73.5122 149.447C73.8199 148.846 74.2526 148.324 74.779 147.917C75.3053 147.511 75.9122 147.231 76.5557 147.098C77.1992 146.965 77.8632 146.982 78.4997 147.147C79.5112 148.01 80.4614 147.542 81.5649 147.188C82.1537 147.001 82.7753 146.953 83.3844 147.046C83.9935 147.14 84.5748 147.374 85.0858 147.73C85.5968 148.086 86.0247 148.556 86.3383 149.105C86.6518 149.655 86.8431 150.27 86.8982 150.906C87.0865 152.49 86.9507 154.083 86.977 155.685C86.977 156.484 86.977 157.283 86.977 158.082C86.977 158.877 86.9464 158.904 86.2239 158.895C85.5014 158.886 84.5862 159.208 84.0826 158.768C83.5791 158.327 83.9031 157.338 83.89 156.593C83.8593 154.85 83.89 153.112 83.89 151.369C83.89 150.915 83.9382 150.438 83.4521 150.248C83.2011 150.162 82.935 150.134 82.6725 150.166C82.4101 150.198 82.1576 150.29 81.9327 150.434C81.5911 150.629 81.7006 151.006 81.6962 151.341C81.6962 153.225 81.6962 155.114 81.6962 157.002C81.6962 157.433 81.6962 157.873 81.6962 158.305C81.6962 158.736 81.5036 158.945 81.0657 158.931C80.4702 158.908 79.8747 158.899 79.2792 158.931C78.7537 158.963 78.6267 158.718 78.6311 158.223C78.6311 156.298 78.6311 154.378 78.6311 152.454C78.6572 151.982 78.6009 151.51 78.4647 151.06C78.4028 150.772 78.234 150.52 77.9948 150.36C77.7556 150.199 77.4652 150.143 77.1861 150.202C76.9042 150.226 76.6412 150.359 76.449 150.574C76.2569 150.789 76.1496 151.071 76.1483 151.364C76.1133 151.818 76.1483 152.236 76.1483 152.671C76.1483 154.487 76.1483 156.303 76.1483 158.119C76.1483 158.904 76.1483 158.913 75.404 158.926C74.8478 158.926 74.283 158.899 73.7269 158.926C73.1708 158.954 73.0175 158.69 73.0263 158.155C73.0175 156.979 73 155.817 73 154.66Z" fill="#FDFDFD"/>
<path d="M140.934 153.01C141.062 153.731 141.003 154.474 140.761 155.165C140.519 155.856 140.104 156.471 139.555 156.952C138.312 158.195 136.653 158.924 134.903 158.997C131.985 159.117 129.027 155.988 129 152.747C129 149.796 131.834 147.091 135.235 147.002C136.907 146.957 138.3 147.756 139.492 148.912C140.06 149.415 140.49 150.056 140.742 150.773C140.994 151.49 141.06 152.26 140.934 153.01Z" fill="#FDFDFD"/>
<path d="M106.319 95C105.937 93.9695 105.493 92.9839 104.99 92.0532C104.386 90.7431 104.053 89.2379 104.024 87.6941C103.941 85.6236 104.05 83.5922 104.729 81.6873C105.067 80.7057 105.573 79.8468 106.204 79.1808C106.241 79.1239 106.287 79.0784 106.339 79.0472C106.391 79.0161 106.446 79 106.503 79C106.559 79 106.615 79.0161 106.667 79.0472C106.718 79.0784 106.765 79.1239 106.802 79.1808C107.271 79.7269 107.658 80.388 107.945 81.1293C109.77 85.641 109.085 90.4578 106.979 94.2284C106.818 94.5657 106.589 94.8335 106.319 95Z" fill="#FDFDFD"/>
<path d="M115.074 153.442C115.074 151.902 115.074 150.363 115.074 148.824C115.074 148.023 115.074 148.005 115.787 148.001C117.129 148.001 118.475 148.035 119.817 148.001C121.744 147.941 123.21 150.23 122.946 152.211C122.919 152.451 122.841 152.681 122.717 152.882C122.594 153.084 122.428 153.252 122.233 153.373C121.832 153.613 121.9 153.887 122.096 154.23C122.124 154.292 122.16 154.348 122.204 154.398C123.406 155.585 122.857 157.146 122.97 158.565C122.97 158.813 122.825 158.929 122.601 158.929C121.928 158.929 121.259 158.929 120.598 158.929C120.278 158.929 120.138 158.779 120.142 158.432C120.142 157.785 120.142 157.146 120.142 156.481C120.122 155.624 119.993 155.397 119.192 155.195C118.391 154.994 118.459 154.946 118.451 154.08C118.443 153.214 118.451 153.163 119.296 152.88C119.933 152.666 120.178 152.323 120.13 151.701C120.081 151.079 119.729 150.724 119.04 150.664C118.912 150.664 118.784 150.664 118.639 150.664C117.926 150.664 117.91 150.663 117.91 151.478C117.91 153.665 117.91 155.855 117.91 158.046C117.91 158.903 117.91 158.903 117.109 158.903C116.472 158.903 115.687 159.186 115.247 158.783C114.806 158.38 115.094 157.497 115.074 156.828C115.034 155.701 115.074 154.573 115.074 153.442Z" fill="#FDFDFD"/>
<path d="M116 101.753C116.273 101.088 116.75 100.524 117.364 100.139C119.408 98.7315 121.727 97.7582 124.174 97.2805C126.455 96.7702 128.715 97.0233 130.962 97.5045C131.158 97.5552 131.349 97.6204 131.535 97.6995C131.626 97.7219 131.71 97.7645 131.782 97.824C131.853 97.8835 131.91 97.9583 131.948 98.0428C131.986 98.1272 132.003 98.2191 132 98.3113C131.996 98.4035 131.971 98.4937 131.926 98.5749C131.757 99.0438 131.467 99.4612 131.084 99.7863C128.799 101.691 126.291 103.068 123.176 102.997C122.81 102.997 122.44 102.997 122.069 102.997C119.409 102.997 118.702 102.852 116 101.753Z" fill="#FDFDFD"/>
<path d="M97 101.721C95.3891 102.52 93.7743 103.095 91.965 102.987C90.6121 102.908 89.2472 103.02 87.9141 102.636C86.3125 102.197 84.8226 101.398 83.5496 100.295C82.9317 99.7736 82.4318 99.1169 82.0856 98.3713C81.9705 98.1107 81.915 97.9039 82.2959 97.784C86.7912 96.3777 91.0525 96.8079 95.0202 99.5252C95.8494 100.084 96.6508 100.683 97 101.721Z" fill="#FDFDFD"/>
<path d="M102.039 153.406C102.039 149.749 103.832 147.605 107.186 147.185C109.206 146.934 108.932 146.591 108.958 148.785C108.958 148.968 108.958 149.15 108.958 149.333C108.936 150.161 108.936 150.161 108.151 150.188C107.741 150.168 107.329 150.208 106.929 150.307C105.445 150.791 104.849 151.884 105.02 153.799C105.123 154.919 106.268 155.97 107.547 156.14C107.975 156.194 108.533 155.938 108.833 156.3C109.134 156.661 108.928 157.351 108.971 157.886C108.981 158.103 108.981 158.322 108.971 158.539C108.971 158.786 108.868 158.964 108.615 158.974C107.109 159.015 105.612 159.143 104.325 158.032C102.828 156.775 101.782 155.335 102.039 153.406Z" fill="#FDFDFD"/>
<path d="M106.558 109C106.469 108.966 106.386 108.91 106.316 108.835C106.245 108.761 106.188 108.67 106.148 108.568C105.154 106.839 104.179 105.079 103.174 103.381C102.915 102.948 102.929 102.698 103.325 102.399C104.276 101.686 105.205 100.925 106.13 100.169C106.223 100.065 106.344 100.005 106.472 100C106.599 99.9955 106.723 100.046 106.821 100.143C107.793 100.947 108.771 101.737 109.756 102.512C110.036 102.732 110.072 102.922 109.878 103.255C108.744 105.153 107.664 107.085 106.558 109Z" fill="#FDFDFD"/>
<path d="M93.0041 153.478C93.0041 151.939 93.0041 150.395 93.0041 148.852C93.0041 148.11 93.0246 148.076 93.7054 148.097C94.3862 148.119 95.2925 147.771 95.7805 148.273C96.1906 148.702 95.8995 149.559 95.9036 150.254C95.9036 152.757 95.9036 155.261 95.9036 157.76C95.9036 159.175 96.0307 158.982 94.6732 158.999C94.4149 158.999 94.1524 158.999 93.8899 158.999C93.0123 158.999 93.0041 158.999 93 158.108C93 156.564 93.0041 155.021 93.0041 153.478Z" fill="#FCFDFD"/>
<path d="M76.9987 182.048C76.9984 182.382 76.9153 182.71 76.7573 183.002C76.5994 183.293 76.3719 183.538 76.0965 183.713C75.8212 183.887 75.5072 183.985 75.1846 183.999C74.862 184.012 74.5416 183.939 74.2539 183.787C73.0759 183.173 72.6795 182.056 73.2723 181.016C73.5996 180.529 74.0916 180.187 74.6509 180.057C75.2102 179.928 75.7961 180.02 76.2927 180.316C76.9006 180.734 77.0138 181.368 76.9987 182.048Z" fill="#FCFDFD"/>
<path d="M158.525 172.708L158.332 173L157 170.347C157.029 170.293 157.071 170.259 157.117 170.25C157.163 170.242 157.209 170.26 157.246 170.302C157.291 170.375 157.345 170.433 157.405 170.473C157.465 170.513 157.53 170.533 157.596 170.533C157.662 170.533 157.727 170.513 157.787 170.473C157.847 170.433 157.901 170.375 157.946 170.302C158.005 170.207 158.077 170.131 158.156 170.079C158.236 170.027 158.322 170 158.408 170C158.495 170 158.581 170.027 158.66 170.079C158.74 170.131 158.812 170.207 158.871 170.302C159.074 170.609 159.031 171.384 158.785 171.847C158.704 171.955 158.639 172.087 158.594 172.236C158.549 172.384 158.526 172.545 158.525 172.708Z" fill="#F7FBFD"/>
<path d="M156.804 169.935C156.719 169.89 156.634 169.846 156.555 169.799C155.755 169.317 155.765 169.305 156.947 169.083C157.212 169.033 157.476 168.924 157.741 169.083C157.866 169.137 157.951 169.209 157.984 169.287C158.018 169.366 157.997 169.447 157.927 169.52C157.73 169.671 157.512 169.816 157.275 169.955C157.244 169.97 157.206 169.983 157.163 169.991C157.121 169.998 157.074 170.001 157.029 169.999C156.983 169.998 156.939 169.991 156.9 169.979C156.861 169.968 156.828 169.953 156.804 169.935Z" fill="#EDF8FC"/>
<path d="M157 170H157.471L158 170.938L157.608 171C157.325 170.766 157.11 170.413 157 170Z" fill="#B2E6F9"/>
<path d="M150.595 174.762L150.486 175C150.295 174.522 150.132 173.997 150 173.438C150.224 173.262 150.454 173.124 150.688 173.027C150.843 172.926 150.895 173.121 150.952 173.363C151.009 173.606 151.034 173.809 150.919 174.02C150.803 174.231 150.641 174.395 150.595 174.762Z" fill="#F3FAFC"/>
<path d="M132.003 152.978C131.985 152.72 132.045 152.462 132.178 152.221C132.311 151.979 132.515 151.759 132.777 151.574C133.039 151.389 133.354 151.242 133.702 151.144C134.05 151.045 134.424 150.997 134.8 151.001C135.613 150.981 136.405 151.181 137.004 151.558C137.604 151.936 137.961 152.46 138 153.018C138.031 153.938 136.357 154.981 134.778 155C133.305 155.015 132.008 154.07 132.003 152.978Z" fill="#05B1F0"/>
</svg>
